ISO-10303-21;
HEADER;
FILE_DESCRIPTION(('ViewDefinition [CoordinationView]'),'2;1');
FILE_NAME('','2026-03-21T17:59:23',(''),(''),'IfcOpenShell 0.8.0','IfcOpenShell 0.8.0','');
FILE_SCHEMA(('IFC4'));
ENDSEC;
DATA;
#1=IFCPERSON($,'ConstruData','BIM Platform',$,$,$,$,$);
#2=IFCORGANIZATION($,'DGS Engenharia',$,$,$);
#3=IFCPERSONANDORGANIZATION(#1,#2,$);
#4=IFCORGANIZATION($,'ConstruData',$,$,$);
#5=IFCAPPLICATION(#4,'5.1','ConstruData BIM Platform','CD-BIM-5.1');
#6=IFCOWNERHISTORY(#3,#5,.READWRITE.,.ADDED.,1774126763,$,$,1774126763);
#7=IFCCARTESIANPOINT((0.,0.,0.));
#8=IFCDIRECTION((0.,0.,1.));
#9=IFCDIRECTION((1.,0.,0.));
#10=IFCAXIS2PLACEMENT3D(#7,#8,#9);
#11=IFCGEOMETRICREPRESENTATIONCONTEXT('Model','Model',3,1.E-05,#10,$);
#12=IFCSIUNIT(*,.LENGTHUNIT.,.MILLI.,.METRE.);
#13=IFCSIUNIT(*,.VOLUMEUNIT.,$,.CUBIC_METRE.);
#14=IFCSIUNIT(*,.PLANEANGLEUNIT.,$,.RADIAN.);
#15=IFCUNITASSIGNMENT((#12,#13,#14));
#16=IFCPROJECT('3tcRfxF_n1gBl3xiv1LVWM',#6,'ConstruData - MORRO DO TET\X2\00C9\X0\U',$,'Project','ConstruData - MORRO DO TET\X2\00C9\X0\U - Rede de Esgoto','Design',(#11),#15);
#17=IFCDIRECTION((0.,0.,1.));
#18=IFCDIRECTION((1.,0.,0.));
#19=IFCCARTESIANPOINT((361249.070226289,7351696.8170141,4.045));
#20=IFCAXIS2PLACEMENT3D(#19,#17,#18);
#21=IFCLOCALPLACEMENT($,#20);
#22=IFCCARTESIANPOINT((0.,0.));
#23=IFCAXIS2PLACEMENT2D(#22,$);
#24=IFCCIRCLE(#23,0.6);
#25=IFCDIRECTION((0.,0.,1.));
#26=IFCEXTRUDEDAREASOLID(#24,$,#25,1.);
#27=IFCCARTESIANPOINT((0.,0.,0.));
#28=IFCDIRECTION((0.,0.,1.));
#29=IFCDIRECTION((1.,0.,0.));
#30=IFCAXIS2PLACEMENT3D(#27,#28,#29);
#31=IFCGEOMETRICREPRESENTATIONCONTEXT('Model','Model',3,1.E-05,#30,$);
#32=IFCSHAPEREPRESENTATION(#31,'Body','SweptSolid',(#26));
#33=IFCPRODUCTDEFINITIONSHAPE($,$,(#32));
#34=IFCSANITARYTERMINAL('13I6h1Z7r9Cf76MHOhvtUw',#6,'PV_X019','Manhole','Manhole',#21,#33,$,$);
#35=IFCDIRECTION((0.,0.,1.));
#36=IFCDIRECTION((1.,0.,0.));
#37=IFCCARTESIANPOINT((361287.383978042,7351696.30232453,5.1815));
#38=IFCAXIS2PLACEMENT3D(#37,#35,#36);
#39=IFCLOCALPLACEMENT($,#38);
#40=IFCCARTESIANPOINT((0.,0.));
#41=IFCAXIS2PLACEMENT2D(#40,$);
#42=IFCCIRCLE(#41,0.6);
#43=IFCDIRECTION((0.,0.,1.));
#44=IFCEXTRUDEDAREASOLID(#42,$,#43,1.);
#45=IFCCARTESIANPOINT((0.,0.,0.));
#46=IFCDIRECTION((0.,0.,1.));
#47=IFCDIRECTION((1.,0.,0.));
#48=IFCAXIS2PLACEMENT3D(#45,#46,#47);
#49=IFCGEOMETRICREPRESENTATIONCONTEXT('Model','Model',3,1.E-05,#48,$);
#50=IFCSHAPEREPRESENTATION(#49,'Body','SweptSolid',(#44));
#51=IFCPRODUCTDEFINITIONSHAPE($,$,(#50));
#52=IFCSANITARYTERMINAL('2s3YLBXLvC2gjmSMnRPfZH',#6,'PV_032','Manhole','Manhole',#39,#51,$,$);
#53=IFCDIRECTION((0.,0.,1.));
#54=IFCDIRECTION((1.,0.,0.));
#55=IFCCARTESIANPOINT((361313.688620895,7351694.11591865,8.8719));
#56=IFCAXIS2PLACEMENT3D(#55,#53,#54);
#57=IFCLOCALPLACEMENT($,#56);
#58=IFCCARTESIANPOINT((0.,0.));
#59=IFCAXIS2PLACEMENT2D(#58,$);
#60=IFCCIRCLE(#59,0.6);
#61=IFCDIRECTION((0.,0.,1.));
#62=IFCEXTRUDEDAREASOLID(#60,$,#61,1.);
#63=IFCCARTESIANPOINT((0.,0.,0.));
#64=IFCDIRECTION((0.,0.,1.));
#65=IFCDIRECTION((1.,0.,0.));
#66=IFCAXIS2PLACEMENT3D(#63,#64,#65);
#67=IFCGEOMETRICREPRESENTATIONCONTEXT('Model','Model',3,1.E-05,#66,$);
#68=IFCSHAPEREPRESENTATION(#67,'Body','SweptSolid',(#62));
#69=IFCPRODUCTDEFINITIONSHAPE($,$,(#68));
#70=IFCSANITARYTERMINAL('3255QzgHD6shhMMNcKNJ8Z',#6,'PV_033','Manhole','Manhole',#57,#69,$,$);
#71=IFCDIRECTION((0.,0.,1.));
#72=IFCDIRECTION((1.,0.,0.));
#73=IFCCARTESIANPOINT((361337.14997253,7351691.17072249,12.3488));
#74=IFCAXIS2PLACEMENT3D(#73,#71,#72);
#75=IFCLOCALPLACEMENT($,#74);
#76=IFCCARTESIANPOINT((0.,0.));
#77=IFCAXIS2PLACEMENT2D(#76,$);
#78=IFCCIRCLE(#77,0.6);
#79=IFCDIRECTION((0.,0.,1.));
#80=IFCEXTRUDEDAREASOLID(#78,$,#79,1.);
#81=IFCCARTESIANPOINT((0.,0.,0.));
#82=IFCDIRECTION((0.,0.,1.));
#83=IFCDIRECTION((1.,0.,0.));
#84=IFCAXIS2PLACEMENT3D(#81,#82,#83);
#85=IFCGEOMETRICREPRESENTATIONCONTEXT('Model','Model',3,1.E-05,#84,$);
#86=IFCSHAPEREPRESENTATION(#85,'Body','SweptSolid',(#80));
#87=IFCPRODUCTDEFINITIONSHAPE($,$,(#86));
#88=IFCSANITARYTERMINAL('3x0Rip_ET4a88UAAYczQ5P',#6,'PV_034','Manhole','Manhole',#75,#87,$,$);
#89=IFCDIRECTION((0.,0.,1.));
#90=IFCDIRECTION((1.,0.,0.));
#91=IFCCARTESIANPOINT((361343.072044342,7351688.82425013,14.2581));
#92=IFCAXIS2PLACEMENT3D(#91,#89,#90);
#93=IFCLOCALPLACEMENT($,#92);
#94=IFCCARTESIANPOINT((0.,0.));
#95=IFCAXIS2PLACEMENT2D(#94,$);
#96=IFCCIRCLE(#95,0.6);
#97=IFCDIRECTION((0.,0.,1.));
#98=IFCEXTRUDEDAREASOLID(#96,$,#97,1.);
#99=IFCCARTESIANPOINT((0.,0.,0.));
#100=IFCDIRECTION((0.,0.,1.));
#101=IFCDIRECTION((1.,0.,0.));
#102=IFCAXIS2PLACEMENT3D(#99,#100,#101);
#103=IFCGEOMETRICREPRESENTATIONCONTEXT('Model','Model',3,1.E-05,#102,$);
#104=IFCSHAPEREPRESENTATION(#103,'Body','SweptSolid',(#98));
#105=IFCPRODUCTDEFINITIONSHAPE($,$,(#104));
#106=IFCSANITARYTERMINAL('3KwQMwIGzBB8agIhYAvvIa',#6,'PV_041','Manhole','Manhole',#93,#105,$,$);
#107=IFCDIRECTION((0.,0.,1.));
#108=IFCDIRECTION((1.,0.,0.));
#109=IFCCARTESIANPOINT((361352.79783068,7351689.37563204,17.2995));
#110=IFCAXIS2PLACEMENT3D(#109,#107,#108);
#111=IFCLOCALPLACEMENT($,#110);
#112=IFCCARTESIANPOINT((0.,0.));
#113=IFCAXIS2PLACEMENT2D(#112,$);
#114=IFCCIRCLE(#113,0.6);
#115=IFCDIRECTION((0.,0.,1.));
#116=IFCEXTRUDEDAREASOLID(#114,$,#115,1.);
#117=IFCCARTESIANPOINT((0.,0.,0.));
#118=IFCDIRECTION((0.,0.,1.));
#119=IFCDIRECTION((1.,0.,0.));
#120=IFCAXIS2PLACEMENT3D(#117,#118,#119);
#121=IFCGEOMETRICREPRESENTATIONCONTEXT('Model','Model',3,1.E-05,#120,$);
#122=IFCSHAPEREPRESENTATION(#121,'Body','SweptSolid',(#116));
#123=IFCPRODUCTDEFINITIONSHAPE($,$,(#122));
#124=IFCSANITARYTERMINAL('0TITNSRh90IByMZm1YsAh3',#6,'PV_042','Manhole','Manhole',#111,#123,$,$);
#125=IFCDIRECTION((0.,0.,1.));
#126=IFCDIRECTION((1.,0.,0.));
#127=IFCCARTESIANPOINT((361361.597468761,7351683.69370713,20.0339));
#128=IFCAXIS2PLACEMENT3D(#127,#125,#126);
#129=IFCLOCALPLACEMENT($,#128);
#130=IFCCARTESIANPOINT((0.,0.));
#131=IFCAXIS2PLACEMENT2D(#130,$);
#132=IFCCIRCLE(#131,0.6);
#133=IFCDIRECTION((0.,0.,1.));
#134=IFCEXTRUDEDAREASOLID(#132,$,#133,1.);
#135=IFCCARTESIANPOINT((0.,0.,0.));
#136=IFCDIRECTION((0.,0.,1.));
#137=IFCDIRECTION((1.,0.,0.));
#138=IFCAXIS2PLACEMENT3D(#135,#136,#137);
#139=IFCGEOMETRICREPRESENTATIONCONTEXT('Model','Model',3,1.E-05,#138,$);
#140=IFCSHAPEREPRESENTATION(#139,'Body','SweptSolid',(#134));
#141=IFCPRODUCTDEFINITIONSHAPE($,$,(#140));
#142=IFCSANITARYTERMINAL('3n28mQFoP13uQzUYnQgp9_',#6,'PV_043','Manhole','Manhole',#129,#141,$,$);
#143=IFCDIRECTION((0.,0.,1.));
#144=IFCDIRECTION((1.,0.,0.));
#145=IFCCARTESIANPOINT((361368.209556247,7351686.13015049,22.1715));
#146=IFCAXIS2PLACEMENT3D(#145,#143,#144);
#147=IFCLOCALPLACEMENT($,#146);
#148=IFCCARTESIANPOINT((0.,0.));
#149=IFCAXIS2PLACEMENT2D(#148,$);
#150=IFCCIRCLE(#149,0.6);
#151=IFCDIRECTION((0.,0.,1.));
#152=IFCEXTRUDEDAREASOLID(#150,$,#151,1.);
#153=IFCCARTESIANPOINT((0.,0.,0.));
#154=IFCDIRECTION((0.,0.,1.));
#155=IFCDIRECTION((1.,0.,0.));
#156=IFCAXIS2PLACEMENT3D(#153,#154,#155);
#157=IFCGEOMETRICREPRESENTATIONCONTEXT('Model','Model',3,1.E-05,#156,$);
#158=IFCSHAPEREPRESENTATION(#157,'Body','SweptSolid',(#152));
#159=IFCPRODUCTDEFINITIONSHAPE($,$,(#158));
#160=IFCSANITARYTERMINAL('2kerxGQ7n2dxjeqsudb$aV',#6,'PV_044','Manhole','Manhole',#147,#159,$,$);
#161=IFCDIRECTION((0.,0.,1.));
#162=IFCDIRECTION((1.,0.,0.));
#163=IFCCARTESIANPOINT((361376.228268652,7351687.61882248,24.3104));
#164=IFCAXIS2PLACEMENT3D(#163,#161,#162);
#165=IFCLOCALPLACEMENT($,#164);
#166=IFCCARTESIANPOINT((0.,0.));
#167=IFCAXIS2PLACEMENT2D(#166,$);
#168=IFCCIRCLE(#167,0.6);
#169=IFCDIRECTION((0.,0.,1.));
#170=IFCEXTRUDEDAREASOLID(#168,$,#169,1.);
#171=IFCCARTESIANPOINT((0.,0.,0.));
#172=IFCDIRECTION((0.,0.,1.));
#173=IFCDIRECTION((1.,0.,0.));
#174=IFCAXIS2PLACEMENT3D(#171,#172,#173);
#175=IFCGEOMETRICREPRESENTATIONCONTEXT('Model','Model',3,1.E-05,#174,$);
#176=IFCSHAPEREPRESENTATION(#175,'Body','SweptSolid',(#170));
#177=IFCPRODUCTDEFINITIONSHAPE($,$,(#176));
#178=IFCSANITARYTERMINAL('1QmD7pc05CjhTLZk0chog5',#6,'PV_045','Manhole','Manhole',#165,#177,$,$);
#179=IFCDIRECTION((0.,0.,1.));
#180=IFCDIRECTION((1.,0.,0.));
#181=IFCCARTESIANPOINT((361384.565812149,7351686.75055638,27.3329));
#182=IFCAXIS2PLACEMENT3D(#181,#179,#180);
#183=IFCLOCALPLACEMENT($,#182);
#184=IFCCARTESIANPOINT((0.,0.));
#185=IFCAXIS2PLACEMENT2D(#184,$);
#186=IFCCIRCLE(#185,0.6);
#187=IFCDIRECTION((0.,0.,1.));
#188=IFCEXTRUDEDAREASOLID(#186,$,#187,1.);
#189=IFCCARTESIANPOINT((0.,0.,0.));
#190=IFCDIRECTION((0.,0.,1.));
#191=IFCDIRECTION((1.,0.,0.));
#192=IFCAXIS2PLACEMENT3D(#189,#190,#191);
#193=IFCGEOMETRICREPRESENTATIONCONTEXT('Model','Model',3,1.E-05,#192,$);
#194=IFCSHAPEREPRESENTATION(#193,'Body','SweptSolid',(#188));
#195=IFCPRODUCTDEFINITIONSHAPE($,$,(#194));
#196=IFCSANITARYTERMINAL('0oQxOn$kn0tuH90t22GTSU',#6,'PV_272','Manhole','Manhole',#183,#195,$,$);
#197=IFCDIRECTION((0.,0.,1.));
#198=IFCDIRECTION((1.,0.,0.));
#199=IFCCARTESIANPOINT((361392.664847147,7351690.7117567,30.3349));
#200=IFCAXIS2PLACEMENT3D(#199,#197,#198);
#201=IFCLOCALPLACEMENT($,#200);
#202=IFCCARTESIANPOINT((0.,0.));
#203=IFCAXIS2PLACEMENT2D(#202,$);
#204=IFCCIRCLE(#203,0.6);
#205=IFCDIRECTION((0.,0.,1.));
#206=IFCEXTRUDEDAREASOLID(#204,$,#205,1.);
#207=IFCCARTESIANPOINT((0.,0.,0.));
#208=IFCDIRECTION((0.,0.,1.));
#209=IFCDIRECTION((1.,0.,0.));
#210=IFCAXIS2PLACEMENT3D(#207,#208,#209);
#211=IFCGEOMETRICREPRESENTATIONCONTEXT('Model','Model',3,1.E-05,#210,$);
#212=IFCSHAPEREPRESENTATION(#211,'Body','SweptSolid',(#206));
#213=IFCPRODUCTDEFINITIONSHAPE($,$,(#212));
#214=IFCSANITARYTERMINAL('38$1_uo6rFAuvjBQvIGK5U',#6,'PV_047','Manhole','Manhole',#201,#213,$,$);
#215=IFCDIRECTION((0.,0.,1.));
#216=IFCDIRECTION((1.,0.,0.));
#217=IFCCARTESIANPOINT((361398.254749399,7351686.81286796,32.107));
#218=IFCAXIS2PLACEMENT3D(#217,#215,#216);
#219=IFCLOCALPLACEMENT($,#218);
#220=IFCCARTESIANPOINT((0.,0.));
#221=IFCAXIS2PLACEMENT2D(#220,$);
#222=IFCCIRCLE(#221,0.6);
#223=IFCDIRECTION((0.,0.,1.));
#224=IFCEXTRUDEDAREASOLID(#222,$,#223,1.);
#225=IFCCARTESIANPOINT((0.,0.,0.));
#226=IFCDIRECTION((0.,0.,1.));
#227=IFCDIRECTION((1.,0.,0.));
#228=IFCAXIS2PLACEMENT3D(#225,#226,#227);
#229=IFCGEOMETRICREPRESENTATIONCONTEXT('Model','Model',3,1.E-05,#228,$);
#230=IFCSHAPEREPRESENTATION(#229,'Body','SweptSolid',(#224));
#231=IFCPRODUCTDEFINITIONSHAPE($,$,(#230));
#232=IFCSANITARYTERMINAL('30DWeIXFT5RRafnR5beTIH',#6,'PV_048','Manhole','Manhole',#219,#231,$,$);
#233=IFCDIRECTION((0.,0.,1.));
#234=IFCDIRECTION((1.,0.,0.));
#235=IFCCARTESIANPOINT((361402.112984916,7351691.22949877,35.497));
#236=IFCAXIS2PLACEMENT3D(#235,#233,#234);
#237=IFCLOCALPLACEMENT($,#236);
#238=IFCCARTESIANPOINT((0.,0.));
#239=IFCAXIS2PLACEMENT2D(#238,$);
#240=IFCCIRCLE(#239,0.6);
#241=IFCDIRECTION((0.,0.,1.));
#242=IFCEXTRUDEDAREASOLID(#240,$,#241,1.);
#243=IFCCARTESIANPOINT((0.,0.,0.));
#244=IFCDIRECTION((0.,0.,1.));
#245=IFCDIRECTION((1.,0.,0.));
#246=IFCAXIS2PLACEMENT3D(#243,#244,#245);
#247=IFCGEOMETRICREPRESENTATIONCONTEXT('Model','Model',3,1.E-05,#246,$);
#248=IFCSHAPEREPRESENTATION(#247,'Body','SweptSolid',(#242));
#249=IFCPRODUCTDEFINITIONSHAPE($,$,(#248));
#250=IFCSANITARYTERMINAL('2bKHHlTeT7JAqGbWFcMI2E',#6,'PV_049','Manhole','Manhole',#237,#249,$,$);
#251=IFCDIRECTION((0.,0.,1.));
#252=IFCDIRECTION((1.,0.,0.));
#253=IFCCARTESIANPOINT((361409.1907517,7351684.8473045,34.8565));
#254=IFCAXIS2PLACEMENT3D(#253,#251,#252);
#255=IFCLOCALPLACEMENT($,#254);
#256=IFCCARTESIANPOINT((0.,0.));
#257=IFCAXIS2PLACEMENT2D(#256,$);
#258=IFCCIRCLE(#257,0.6);
#259=IFCDIRECTION((0.,0.,1.));
#260=IFCEXTRUDEDAREASOLID(#258,$,#259,1.);
#261=IFCCARTESIANPOINT((0.,0.,0.));
#262=IFCDIRECTION((0.,0.,1.));
#263=IFCDIRECTION((1.,0.,0.));
#264=IFCAXIS2PLACEMENT3D(#261,#262,#263);
#265=IFCGEOMETRICREPRESENTATIONCONTEXT('Model','Model',3,1.E-05,#264,$);
#266=IFCSHAPEREPRESENTATION(#265,'Body','SweptSolid',(#260));
#267=IFCPRODUCTDEFINITIONSHAPE($,$,(#266));
#268=IFCSANITARYTERMINAL('0RCWBphoH668DeeDZ8cxu7',#6,'PV_067','Manhole','Manhole',#255,#267,$,$);
#269=IFCDIRECTION((0.,0.,1.));
#270=IFCDIRECTION((1.,0.,0.));
#271=IFCCARTESIANPOINT((361397.044783532,7351670.71459983,30.0588));
#272=IFCAXIS2PLACEMENT3D(#271,#269,#270);
#273=IFCLOCALPLACEMENT($,#272);
#274=IFCCARTESIANPOINT((0.,0.));
#275=IFCAXIS2PLACEMENT2D(#274,$);
#276=IFCCIRCLE(#275,0.6);
#277=IFCDIRECTION((0.,0.,1.));
#278=IFCEXTRUDEDAREASOLID(#276,$,#277,1.);
#279=IFCCARTESIANPOINT((0.,0.,0.));
#280=IFCDIRECTION((0.,0.,1.));
#281=IFCDIRECTION((1.,0.,0.));
#282=IFCAXIS2PLACEMENT3D(#279,#280,#281);
#283=IFCGEOMETRICREPRESENTATIONCONTEXT('Model','Model',3,1.E-05,#282,$);
#284=IFCSHAPEREPRESENTATION(#283,'Body','SweptSolid',(#278));
#285=IFCPRODUCTDEFINITIONSHAPE($,$,(#284));
#286=IFCSANITARYTERMINAL('1HbUIFjzzA4ebMKUG0C53E',#6,'PV_068','Manhole','Manhole',#273,#285,$,$);
#287=IFCDIRECTION((0.,0.,1.));
#288=IFCDIRECTION((1.,0.,0.));
#289=IFCCARTESIANPOINT((361392.080747253,7351664.62300082,27.7519));
#290=IFCAXIS2PLACEMENT3D(#289,#287,#288);
#291=IFCLOCALPLACEMENT($,#290);
#292=IFCCARTESIANPOINT((0.,0.));
#293=IFCAXIS2PLACEMENT2D(#292,$);
#294=IFCCIRCLE(#293,0.6);
#295=IFCDIRECTION((0.,0.,1.));
#296=IFCEXTRUDEDAREASOLID(#294,$,#295,1.);
#297=IFCCARTESIANPOINT((0.,0.,0.));
#298=IFCDIRECTION((0.,0.,1.));
#299=IFCDIRECTION((1.,0.,0.));
#300=IFCAXIS2PLACEMENT3D(#297,#298,#299);
#301=IFCGEOMETRICREPRESENTATIONCONTEXT('Model','Model',3,1.E-05,#300,$);
#302=IFCSHAPEREPRESENTATION(#301,'Body','SweptSolid',(#296));
#303=IFCPRODUCTDEFINITIONSHAPE($,$,(#302));
#304=IFCSANITARYTERMINAL('3$wYszgn94yB4QjUxRtstj',#6,'PV_069','Manhole','Manhole',#291,#303,$,$);
#305=IFCDIRECTION((0.,0.,1.));
#306=IFCDIRECTION((1.,0.,0.));
#307=IFCCARTESIANPOINT((361377.690206535,7351651.12020218,21.2116));
#308=IFCAXIS2PLACEMENT3D(#307,#305,#306);
#309=IFCLOCALPLACEMENT($,#308);
#310=IFCCARTESIANPOINT((0.,0.));
#311=IFCAXIS2PLACEMENT2D(#310,$);
#312=IFCCIRCLE(#311,0.6);
#313=IFCDIRECTION((0.,0.,1.));
#314=IFCEXTRUDEDAREASOLID(#312,$,#313,1.);
#315=IFCCARTESIANPOINT((0.,0.,0.));
#316=IFCDIRECTION((0.,0.,1.));
#317=IFCDIRECTION((1.,0.,0.));
#318=IFCAXIS2PLACEMENT3D(#315,#316,#317);
#319=IFCGEOMETRICREPRESENTATIONCONTEXT('Model','Model',3,1.E-05,#318,$);
#320=IFCSHAPEREPRESENTATION(#319,'Body','SweptSolid',(#314));
#321=IFCPRODUCTDEFINITIONSHAPE($,$,(#320));
#322=IFCSANITARYTERMINAL('3YVi5iARj7X9WrEbrC3fH5',#6,'PV_071','Manhole','Manhole',#309,#321,$,$);
#323=IFCDIRECTION((0.,0.,1.));
#324=IFCDIRECTION((1.,0.,0.));
#325=IFCCARTESIANPOINT((361356.449945169,7351638.77207552,13.286));
#326=IFCAXIS2PLACEMENT3D(#325,#323,#324);
#327=IFCLOCALPLACEMENT($,#326);
#328=IFCCARTESIANPOINT((0.,0.));
#329=IFCAXIS2PLACEMENT2D(#328,$);
#330=IFCCIRCLE(#329,0.6);
#331=IFCDIRECTION((0.,0.,1.));
#332=IFCEXTRUDEDAREASOLID(#330,$,#331,1.);
#333=IFCCARTESIANPOINT((0.,0.,0.));
#334=IFCDIRECTION((0.,0.,1.));
#335=IFCDIRECTION((1.,0.,0.));
#336=IFCAXIS2PLACEMENT3D(#333,#334,#335);
#337=IFCGEOMETRICREPRESENTATIONCONTEXT('Model','Model',3,1.E-05,#336,$);
#338=IFCSHAPEREPRESENTATION(#337,'Body','SweptSolid',(#332));
#339=IFCPRODUCTDEFINITIONSHAPE($,$,(#338));
#340=IFCSANITARYTERMINAL('1W9SDFAZr0Fh6q_Dj$Yt6P',#6,'PV_072','Manhole','Manhole',#327,#339,$,$);
#341=IFCDIRECTION((0.,0.,1.));
#342=IFCDIRECTION((1.,0.,0.));
#343=IFCCARTESIANPOINT((361342.696191296,7351632.69581691,10.1849));
#344=IFCAXIS2PLACEMENT3D(#343,#341,#342);
#345=IFCLOCALPLACEMENT($,#344);
#346=IFCCARTESIANPOINT((0.,0.));
#347=IFCAXIS2PLACEMENT2D(#346,$);
#348=IFCCIRCLE(#347,0.6);
#349=IFCDIRECTION((0.,0.,1.));
#350=IFCEXTRUDEDAREASOLID(#348,$,#349,1.);
#351=IFCCARTESIANPOINT((0.,0.,0.));
#352=IFCDIRECTION((0.,0.,1.));
#353=IFCDIRECTION((1.,0.,0.));
#354=IFCAXIS2PLACEMENT3D(#351,#352,#353);
#355=IFCGEOMETRICREPRESENTATIONCONTEXT('Model','Model',3,1.E-05,#354,$);
#356=IFCSHAPEREPRESENTATION(#355,'Body','SweptSolid',(#350));
#357=IFCPRODUCTDEFINITIONSHAPE($,$,(#356));
#358=IFCSANITARYTERMINAL('3w3mYkjn59aRyZ$SkEdDvD',#6,'PV_073','Manhole','Manhole',#345,#357,$,$);
#359=IFCDIRECTION((0.,0.,1.));
#360=IFCDIRECTION((1.,0.,0.));
#361=IFCCARTESIANPOINT((361348.21152317,7351617.95553933,5.902));
#362=IFCAXIS2PLACEMENT3D(#361,#359,#360);
#363=IFCLOCALPLACEMENT($,#362);
#364=IFCCARTESIANPOINT((0.,0.));
#365=IFCAXIS2PLACEMENT2D(#364,$);
#366=IFCCIRCLE(#365,0.6);
#367=IFCDIRECTION((0.,0.,1.));
#368=IFCEXTRUDEDAREASOLID(#366,$,#367,1.);
#369=IFCCARTESIANPOINT((0.,0.,0.));
#370=IFCDIRECTION((0.,0.,1.));
#371=IFCDIRECTION((1.,0.,0.));
#372=IFCAXIS2PLACEMENT3D(#369,#370,#371);
#373=IFCGEOMETRICREPRESENTATIONCONTEXT('Model','Model',3,1.E-05,#372,$);
#374=IFCSHAPEREPRESENTATION(#373,'Body','SweptSolid',(#368));
#375=IFCPRODUCTDEFINITIONSHAPE($,$,(#374));
#376=IFCSANITARYTERMINAL('2eYpxN8zbA5A3lX8x218sQ',#6,'PV_074','Manhole','Manhole',#363,#375,$,$);
#377=IFCDIRECTION((0.,0.,1.));
#378=IFCDIRECTION((1.,0.,0.));
#379=IFCCARTESIANPOINT((361325.97025139,7351604.70195584,4.4621));
#380=IFCAXIS2PLACEMENT3D(#379,#377,#378);
#381=IFCLOCALPLACEMENT($,#380);
#382=IFCCARTESIANPOINT((0.,0.));
#383=IFCAXIS2PLACEMENT2D(#382,$);
#384=IFCCIRCLE(#383,0.6);
#385=IFCDIRECTION((0.,0.,1.));
#386=IFCEXTRUDEDAREASOLID(#384,$,#385,1.);
#387=IFCCARTESIANPOINT((0.,0.,0.));
#388=IFCDIRECTION((0.,0.,1.));
#389=IFCDIRECTION((1.,0.,0.));
#390=IFCAXIS2PLACEMENT3D(#387,#388,#389);
#391=IFCGEOMETRICREPRESENTATIONCONTEXT('Model','Model',3,1.E-05,#390,$);
#392=IFCSHAPEREPRESENTATION(#391,'Body','SweptSolid',(#386));
#393=IFCPRODUCTDEFINITIONSHAPE($,$,(#392));
#394=IFCSANITARYTERMINAL('2$c6BhWAz96hxjHwu_2Gyt',#6,'PV_075','Manhole','Manhole',#381,#393,$,$);
#395=IFCDIRECTION((0.,0.,1.));
#396=IFCDIRECTION((1.,0.,0.));
#397=IFCCARTESIANPOINT((361329.118130069,7351596.60982975,4.2873));
#398=IFCAXIS2PLACEMENT3D(#397,#395,#396);
#399=IFCLOCALPLACEMENT($,#398);
#400=IFCCARTESIANPOINT((0.,0.));
#401=IFCAXIS2PLACEMENT2D(#400,$);
#402=IFCCIRCLE(#401,0.6);
#403=IFCDIRECTION((0.,0.,1.));
#404=IFCEXTRUDEDAREASOLID(#402,$,#403,1.);
#405=IFCCARTESIANPOINT((0.,0.,0.));
#406=IFCDIRECTION((0.,0.,1.));
#407=IFCDIRECTION((1.,0.,0.));
#408=IFCAXIS2PLACEMENT3D(#405,#406,#407);
#409=IFCGEOMETRICREPRESENTATIONCONTEXT('Model','Model',3,1.E-05,#408,$);
#410=IFCSHAPEREPRESENTATION(#409,'Body','SweptSolid',(#404));
#411=IFCPRODUCTDEFINITIONSHAPE($,$,(#410));
#412=IFCSANITARYTERMINAL('1mzXSpFuf6UejowTATK8q5',#6,'PV_076','Manhole','Manhole',#399,#411,$,$);
#413=IFCDIRECTION((0.,0.,1.));
#414=IFCDIRECTION((1.,0.,0.));
#415=IFCCARTESIANPOINT((361323.028535423,7351592.97244405,4.0035));
#416=IFCAXIS2PLACEMENT3D(#415,#413,#414);
#417=IFCLOCALPLACEMENT($,#416);
#418=IFCCARTESIANPOINT((0.,0.));
#419=IFCAXIS2PLACEMENT2D(#418,$);
#420=IFCCIRCLE(#419,0.6);
#421=IFCDIRECTION((0.,0.,1.));
#422=IFCEXTRUDEDAREASOLID(#420,$,#421,1.);
#423=IFCCARTESIANPOINT((0.,0.,0.));
#424=IFCDIRECTION((0.,0.,1.));
#425=IFCDIRECTION((1.,0.,0.));
#426=IFCAXIS2PLACEMENT3D(#423,#424,#425);
#427=IFCGEOMETRICREPRESENTATIONCONTEXT('Model','Model',3,1.E-05,#426,$);
#428=IFCSHAPEREPRESENTATION(#427,'Body','SweptSolid',(#422));
#429=IFCPRODUCTDEFINITIONSHAPE($,$,(#428));
#430=IFCSANITARYTERMINAL('3FcQARjtLB5x5HnTxsrUmD',#6,'PV_077','Manhole','Manhole',#417,#429,$,$);
#431=IFCDIRECTION((0.,0.,1.));
#432=IFCDIRECTION((1.,0.,0.));
#433=IFCCARTESIANPOINT((361329.115587424,7351579.20005946,4.0298));
#434=IFCAXIS2PLACEMENT3D(#433,#431,#432);
#435=IFCLOCALPLACEMENT($,#434);
#436=IFCCARTESIANPOINT((0.,0.));
#437=IFCAXIS2PLACEMENT2D(#436,$);
#438=IFCCIRCLE(#437,0.6);
#439=IFCDIRECTION((0.,0.,1.));
#440=IFCEXTRUDEDAREASOLID(#438,$,#439,1.);
#441=IFCCARTESIANPOINT((0.,0.,0.));
#442=IFCDIRECTION((0.,0.,1.));
#443=IFCDIRECTION((1.,0.,0.));
#444=IFCAXIS2PLACEMENT3D(#441,#442,#443);
#445=IFCGEOMETRICREPRESENTATIONCONTEXT('Model','Model',3,1.E-05,#444,$);
#446=IFCSHAPEREPRESENTATION(#445,'Body','SweptSolid',(#440));
#447=IFCPRODUCTDEFINITIONSHAPE($,$,(#446));
#448=IFCSANITARYTERMINAL('3Q3S03fUX1MRkZ7Zf_liAC',#6,'PV_078','Manhole','Manhole',#435,#447,$,$);
#449=IFCDIRECTION((0.,0.,1.));
#450=IFCDIRECTION((1.,0.,0.));
#451=IFCCARTESIANPOINT((361312.378143089,7351573.28695408,3.47));
#452=IFCAXIS2PLACEMENT3D(#451,#449,#450);
#453=IFCLOCALPLACEMENT($,#452);
#454=IFCCARTESIANPOINT((0.,0.));
#455=IFCAXIS2PLACEMENT2D(#454,$);
#456=IFCCIRCLE(#455,0.6);
#457=IFCDIRECTION((0.,0.,1.));
#458=IFCEXTRUDEDAREASOLID(#456,$,#457,1.);
#459=IFCCARTESIANPOINT((0.,0.,0.));
#460=IFCDIRECTION((0.,0.,1.));
#461=IFCDIRECTION((1.,0.,0.));
#462=IFCAXIS2PLACEMENT3D(#459,#460,#461);
#463=IFCGEOMETRICREPRESENTATIONCONTEXT('Model','Model',3,1.E-05,#462,$);
#464=IFCSHAPEREPRESENTATION(#463,'Body','SweptSolid',(#458));
#465=IFCPRODUCTDEFINITIONSHAPE($,$,(#464));
#466=IFCSANITARYTERMINAL('0CpKiVG9P5fhj1mZD7awdh',#6,'PV_X043','Manhole','Manhole',#453,#465,$,$);
#467=IFCDIRECTION((0.,0.,1.));
#468=IFCDIRECTION((1.,0.,0.));
#469=IFCCARTESIANPOINT((361338.555722112,7351676.54749911,11.6813));
#470=IFCAXIS2PLACEMENT3D(#469,#467,#468);
#471=IFCLOCALPLACEMENT($,#470);
#472=IFCCARTESIANPOINT((0.,0.));
#473=IFCAXIS2PLACEMENT2D(#472,$);
#474=IFCCIRCLE(#473,0.6);
#475=IFCDIRECTION((0.,0.,1.));
#476=IFCEXTRUDEDAREASOLID(#474,$,#475,1.);
#477=IFCCARTESIANPOINT((0.,0.,0.));
#478=IFCDIRECTION((0.,0.,1.));
#479=IFCDIRECTION((1.,0.,0.));
#480=IFCAXIS2PLACEMENT3D(#477,#478,#479);
#481=IFCGEOMETRICREPRESENTATIONCONTEXT('Model','Model',3,1.E-05,#480,$);
#482=IFCSHAPEREPRESENTATION(#481,'Body','SweptSolid',(#476));
#483=IFCPRODUCTDEFINITIONSHAPE($,$,(#482));
#484=IFCSANITARYTERMINAL('2yXFUF7svC4x_KzIKTomdE',#6,'PV_080','Manhole','Manhole',#471,#483,$,$);
#485=IFCDIRECTION((0.,0.,1.));
#486=IFCDIRECTION((1.,0.,0.));
#487=IFCCARTESIANPOINT((361331.61029795,7351672.66862295,9.3612));
#488=IFCAXIS2PLACEMENT3D(#487,#485,#486);
#489=IFCLOCALPLACEMENT($,#488);
#490=IFCCARTESIANPOINT((0.,0.));
#491=IFCAXIS2PLACEMENT2D(#490,$);
#492=IFCCIRCLE(#491,0.6);
#493=IFCDIRECTION((0.,0.,1.));
#494=IFCEXTRUDEDAREASOLID(#492,$,#493,1.);
#495=IFCCARTESIANPOINT((0.,0.,0.));
#496=IFCDIRECTION((0.,0.,1.));
#497=IFCDIRECTION((1.,0.,0.));
#498=IFCAXIS2PLACEMENT3D(#495,#496,#497);
#499=IFCGEOMETRICREPRESENTATIONCONTEXT('Model','Model',3,1.E-05,#498,$);
#500=IFCSHAPEREPRESENTATION(#499,'Body','SweptSolid',(#494));
#501=IFCPRODUCTDEFINITIONSHAPE($,$,(#500));
#502=IFCSANITARYTERMINAL('3tEvd_aXz1xBx77ZDuuLwQ',#6,'PV_081','Manhole','Manhole',#489,#501,$,$);
#503=IFCDIRECTION((0.,0.,1.));
#504=IFCDIRECTION((1.,0.,0.));
#505=IFCCARTESIANPOINT((361316.212577775,7351668.30246747,4.8732));
#506=IFCAXIS2PLACEMENT3D(#505,#503,#504);
#507=IFCLOCALPLACEMENT($,#506);
#508=IFCCARTESIANPOINT((0.,0.));
#509=IFCAXIS2PLACEMENT2D(#508,$);
#510=IFCCIRCLE(#509,0.6);
#511=IFCDIRECTION((0.,0.,1.));
#512=IFCEXTRUDEDAREASOLID(#510,$,#511,1.);
#513=IFCCARTESIANPOINT((0.,0.,0.));
#514=IFCDIRECTION((0.,0.,1.));
#515=IFCDIRECTION((1.,0.,0.));
#516=IFCAXIS2PLACEMENT3D(#513,#514,#515);
#517=IFCGEOMETRICREPRESENTATIONCONTEXT('Model','Model',3,1.E-05,#516,$);
#518=IFCSHAPEREPRESENTATION(#517,'Body','SweptSolid',(#512));
#519=IFCPRODUCTDEFINITIONSHAPE($,$,(#518));
#520=IFCSANITARYTERMINAL('2DyfMAueDEhh1ZRM3zuG_h',#6,'PV_082','Manhole','Manhole',#507,#519,$,$);
#521=IFCDIRECTION((0.,0.,1.));
#522=IFCDIRECTION((1.,0.,0.));
#523=IFCCARTESIANPOINT((361300.479228375,7351664.55514491,4.2536));
#524=IFCAXIS2PLACEMENT3D(#523,#521,#522);
#525=IFCLOCALPLACEMENT($,#524);
#526=IFCCARTESIANPOINT((0.,0.));
#527=IFCAXIS2PLACEMENT2D(#526,$);
#528=IFCCIRCLE(#527,0.6);
#529=IFCDIRECTION((0.,0.,1.));
#530=IFCEXTRUDEDAREASOLID(#528,$,#529,1.);
#531=IFCCARTESIANPOINT((0.,0.,0.));
#532=IFCDIRECTION((0.,0.,1.));
#533=IFCDIRECTION((1.,0.,0.));
#534=IFCAXIS2PLACEMENT3D(#531,#532,#533);
#535=IFCGEOMETRICREPRESENTATIONCONTEXT('Model','Model',3,1.E-05,#534,$);
#536=IFCSHAPEREPRESENTATION(#535,'Body','SweptSolid',(#530));
#537=IFCPRODUCTDEFINITIONSHAPE($,$,(#536));
#538=IFCSANITARYTERMINAL('1StP$84hT3zwC0E8kv8dU_',#6,'PV_083','Manhole','Manhole',#525,#537,$,$);
#539=IFCDIRECTION((0.,0.,1.));
#540=IFCDIRECTION((1.,0.,0.));
#541=IFCCARTESIANPOINT((361362.711230921,7351623.6833764,10.1372));
#542=IFCAXIS2PLACEMENT3D(#541,#539,#540);
#543=IFCLOCALPLACEMENT($,#542);
#544=IFCCARTESIANPOINT((0.,0.));
#545=IFCAXIS2PLACEMENT2D(#544,$);
#546=IFCCIRCLE(#545,0.6);
#547=IFCDIRECTION((0.,0.,1.));
#548=IFCEXTRUDEDAREASOLID(#546,$,#547,1.);
#549=IFCCARTESIANPOINT((0.,0.,0.));
#550=IFCDIRECTION((0.,0.,1.));
#551=IFCDIRECTION((1.,0.,0.));
#552=IFCAXIS2PLACEMENT3D(#549,#550,#551);
#553=IFCGEOMETRICREPRESENTATIONCONTEXT('Model','Model',3,1.E-05,#552,$);
#554=IFCSHAPEREPRESENTATION(#553,'Body','SweptSolid',(#548));
#555=IFCPRODUCTDEFINITIONSHAPE($,$,(#554));
#556=IFCSANITARYTERMINAL('2xjT4_1PX8Nxg0X1aPleMf',#6,'PV_085','Manhole','Manhole',#543,#555,$,$);
#557=IFCDIRECTION((0.,0.,1.));
#558=IFCDIRECTION((1.,0.,0.));
#559=IFCCARTESIANPOINT((361367.524834279,7351619.92507416,9.4129));
#560=IFCAXIS2PLACEMENT3D(#559,#557,#558);
#561=IFCLOCALPLACEMENT($,#560);
#562=IFCCARTESIANPOINT((0.,0.));
#563=IFCAXIS2PLACEMENT2D(#562,$);
#564=IFCCIRCLE(#563,0.6);
#565=IFCDIRECTION((0.,0.,1.));
#566=IFCEXTRUDEDAREASOLID(#564,$,#565,1.);
#567=IFCCARTESIANPOINT((0.,0.,0.));
#568=IFCDIRECTION((0.,0.,1.));
#569=IFCDIRECTION((1.,0.,0.));
#570=IFCAXIS2PLACEMENT3D(#567,#568,#569);
#571=IFCGEOMETRICREPRESENTATIONCONTEXT('Model','Model',3,1.E-05,#570,$);
#572=IFCSHAPEREPRESENTATION(#571,'Body','SweptSolid',(#566));
#573=IFCPRODUCTDEFINITIONSHAPE($,$,(#572));
#574=IFCSANITARYTERMINAL('022NK_WSf9UxTZrt$DRCVi',#6,'PV_086','Manhole','Manhole',#561,#573,$,$);
#575=IFCDIRECTION((0.,0.,1.));
#576=IFCDIRECTION((1.,0.,0.));
#577=IFCCARTESIANPOINT((361386.334909962,7351641.26419594,16.2658));
#578=IFCAXIS2PLACEMENT3D(#577,#575,#576);
#579=IFCLOCALPLACEMENT($,#578);
#580=IFCCARTESIANPOINT((0.,0.));
#581=IFCAXIS2PLACEMENT2D(#580,$);
#582=IFCCIRCLE(#581,0.6);
#583=IFCDIRECTION((0.,0.,1.));
#584=IFCEXTRUDEDAREASOLID(#582,$,#583,1.);
#585=IFCCARTESIANPOINT((0.,0.,0.));
#586=IFCDIRECTION((0.,0.,1.));
#587=IFCDIRECTION((1.,0.,0.));
#588=IFCAXIS2PLACEMENT3D(#585,#586,#587);
#589=IFCGEOMETRICREPRESENTATIONCONTEXT('Model','Model',3,1.E-05,#588,$);
#590=IFCSHAPEREPRESENTATION(#589,'Body','SweptSolid',(#584));
#591=IFCPRODUCTDEFINITIONSHAPE($,$,(#590));
#592=IFCSANITARYTERMINAL('0LVTIugxHDOggkX7YAHj7R',#6,'PV_088','Manhole','Manhole',#579,#591,$,$);
#593=IFCDIRECTION((0.,0.,1.));
#594=IFCDIRECTION((1.,0.,0.));
#595=IFCCARTESIANPOINT((361392.254981005,7351646.77356093,19.7859));
#596=IFCAXIS2PLACEMENT3D(#595,#593,#594);
#597=IFCLOCALPLACEMENT($,#596);
#598=IFCCARTESIANPOINT((0.,0.));
#599=IFCAXIS2PLACEMENT2D(#598,$);
#600=IFCCIRCLE(#599,0.6);
#601=IFCDIRECTION((0.,0.,1.));
#602=IFCEXTRUDEDAREASOLID(#600,$,#601,1.);
#603=IFCCARTESIANPOINT((0.,0.,0.));
#604=IFCDIRECTION((0.,0.,1.));
#605=IFCDIRECTION((1.,0.,0.));
#606=IFCAXIS2PLACEMENT3D(#603,#604,#605);
#607=IFCGEOMETRICREPRESENTATIONCONTEXT('Model','Model',3,1.E-05,#606,$);
#608=IFCSHAPEREPRESENTATION(#607,'Body','SweptSolid',(#602));
#609=IFCPRODUCTDEFINITIONSHAPE($,$,(#608));
#610=IFCSANITARYTERMINAL('1Yzo4VqTn5FQ3WlpX9lw_B',#6,'PV_089','Manhole','Manhole',#597,#609,$,$);
#611=IFCDIRECTION((0.,0.,1.));
#612=IFCDIRECTION((1.,0.,0.));
#613=IFCCARTESIANPOINT((361398.427399207,7351650.42217548,17.0895));
#614=IFCAXIS2PLACEMENT3D(#613,#611,#612);
#615=IFCLOCALPLACEMENT($,#614);
#616=IFCCARTESIANPOINT((0.,0.));
#617=IFCAXIS2PLACEMENT2D(#616,$);
#618=IFCCIRCLE(#617,0.6);
#619=IFCDIRECTION((0.,0.,1.));
#620=IFCEXTRUDEDAREASOLID(#618,$,#619,1.);
#621=IFCCARTESIANPOINT((0.,0.,0.));
#622=IFCDIRECTION((0.,0.,1.));
#623=IFCDIRECTION((1.,0.,0.));
#624=IFCAXIS2PLACEMENT3D(#621,#622,#623);
#625=IFCGEOMETRICREPRESENTATIONCONTEXT('Model','Model',3,1.E-05,#624,$);
#626=IFCSHAPEREPRESENTATION(#625,'Body','SweptSolid',(#620));
#627=IFCPRODUCTDEFINITIONSHAPE($,$,(#626));
#628=IFCSANITARYTERMINAL('1EWkZbVRPApfp4Bc0rVwTi',#6,'PV_090','Manhole','Manhole',#615,#627,$,$);
#629=IFCDIRECTION((0.,0.,1.));
#630=IFCDIRECTION((1.,0.,0.));
#631=IFCCARTESIANPOINT((361408.025511387,7351653.69316724,19.8939));
#632=IFCAXIS2PLACEMENT3D(#631,#629,#630);
#633=IFCLOCALPLACEMENT($,#632);
#634=IFCCARTESIANPOINT((0.,0.));
#635=IFCAXIS2PLACEMENT2D(#634,$);
#636=IFCCIRCLE(#635,0.6);
#637=IFCDIRECTION((0.,0.,1.));
#638=IFCEXTRUDEDAREASOLID(#636,$,#637,1.);
#639=IFCCARTESIANPOINT((0.,0.,0.));
#640=IFCDIRECTION((0.,0.,1.));
#641=IFCDIRECTION((1.,0.,0.));
#642=IFCAXIS2PLACEMENT3D(#639,#640,#641);
#643=IFCGEOMETRICREPRESENTATIONCONTEXT('Model','Model',3,1.E-05,#642,$);
#644=IFCSHAPEREPRESENTATION(#643,'Body','SweptSolid',(#638));
#645=IFCPRODUCTDEFINITIONSHAPE($,$,(#644));
#646=IFCSANITARYTERMINAL('1OofA5Wd1D6hcc18M0QVa9',#6,'PV_091','Manhole','Manhole',#633,#645,$,$);
#647=IFCDIRECTION((0.,0.,1.));
#648=IFCDIRECTION((1.,0.,0.));
#649=IFCCARTESIANPOINT((361321.09357333,7351642.78663956,5.3803));
#650=IFCAXIS2PLACEMENT3D(#649,#647,#648);
#651=IFCLOCALPLACEMENT($,#650);
#652=IFCCARTESIANPOINT((0.,0.));
#653=IFCAXIS2PLACEMENT2D(#652,$);
#654=IFCCIRCLE(#653,0.6);
#655=IFCDIRECTION((0.,0.,1.));
#656=IFCEXTRUDEDAREASOLID(#654,$,#655,1.);
#657=IFCCARTESIANPOINT((0.,0.,0.));
#658=IFCDIRECTION((0.,0.,1.));
#659=IFCDIRECTION((1.,0.,0.));
#660=IFCAXIS2PLACEMENT3D(#657,#658,#659);
#661=IFCGEOMETRICREPRESENTATIONCONTEXT('Model','Model',3,1.E-05,#660,$);
#662=IFCSHAPEREPRESENTATION(#661,'Body','SweptSolid',(#656));
#663=IFCPRODUCTDEFINITIONSHAPE($,$,(#662));
#664=IFCSANITARYTERMINAL('3Mm3s$6DzFlAMUeZGpntZj',#6,'PV_092','Manhole','Manhole',#651,#663,$,$);
#665=IFCDIRECTION((0.,0.,1.));
#666=IFCDIRECTION((1.,0.,0.));
#667=IFCCARTESIANPOINT((361330.463604524,7351634.59131831,7.9617));
#668=IFCAXIS2PLACEMENT3D(#667,#665,#666);
#669=IFCLOCALPLACEMENT($,#668);
#670=IFCCARTESIANPOINT((0.,0.));
#671=IFCAXIS2PLACEMENT2D(#670,$);
#672=IFCCIRCLE(#671,0.6);
#673=IFCDIRECTION((0.,0.,1.));
#674=IFCEXTRUDEDAREASOLID(#672,$,#673,1.);
#675=IFCCARTESIANPOINT((0.,0.,0.));
#676=IFCDIRECTION((0.,0.,1.));
#677=IFCDIRECTION((1.,0.,0.));
#678=IFCAXIS2PLACEMENT3D(#675,#676,#677);
#679=IFCGEOMETRICREPRESENTATIONCONTEXT('Model','Model',3,1.E-05,#678,$);
#680=IFCSHAPEREPRESENTATION(#679,'Body','SweptSolid',(#674));
#681=IFCPRODUCTDEFINITIONSHAPE($,$,(#680));
#682=IFCSANITARYTERMINAL('1IkKfl13T5qRMsUPSm2Fvf',#6,'PV_093','Manhole','Manhole',#669,#681,$,$);
#683=IFCDIRECTION((0.,0.,1.));
#684=IFCDIRECTION((1.,0.,0.));
#685=IFCCARTESIANPOINT((361291.930562495,7351696.18146092,5.3673));
#686=IFCAXIS2PLACEMENT3D(#685,#683,#684);
#687=IFCLOCALPLACEMENT($,#686);
#688=IFCCARTESIANPOINT((0.,0.));
#689=IFCAXIS2PLACEMENT2D(#688,$);
#690=IFCCIRCLE(#689,0.6);
#691=IFCDIRECTION((0.,0.,1.));
#692=IFCEXTRUDEDAREASOLID(#690,$,#691,1.);
#693=IFCCARTESIANPOINT((0.,0.,0.));
#694=IFCDIRECTION((0.,0.,1.));
#695=IFCDIRECTION((1.,0.,0.));
#696=IFCAXIS2PLACEMENT3D(#693,#694,#695);
#697=IFCGEOMETRICREPRESENTATIONCONTEXT('Model','Model',3,1.E-05,#696,$);
#698=IFCSHAPEREPRESENTATION(#697,'Body','SweptSolid',(#692));
#699=IFCPRODUCTDEFINITIONSHAPE($,$,(#698));
#700=IFCSANITARYTERMINAL('3BA6f0Tz17gv4YCIIOveNI',#6,'PV_094','Manhole','Manhole',#687,#699,$,$);
#701=IFCDIRECTION((0.,0.,1.));
#702=IFCDIRECTION((1.,0.,0.));
#703=IFCCARTESIANPOINT((361405.740630702,7351657.74334526,21.3446));
#704=IFCAXIS2PLACEMENT3D(#703,#701,#702);
#705=IFCLOCALPLACEMENT($,#704);
#706=IFCCARTESIANPOINT((0.,0.));
#707=IFCAXIS2PLACEMENT2D(#706,$);
#708=IFCCIRCLE(#707,0.6);
#709=IFCDIRECTION((0.,0.,1.));
#710=IFCEXTRUDEDAREASOLID(#708,$,#709,1.);
#711=IFCCARTESIANPOINT((0.,0.,0.));
#712=IFCDIRECTION((0.,0.,1.));
#713=IFCDIRECTION((1.,0.,0.));
#714=IFCAXIS2PLACEMENT3D(#711,#712,#713);
#715=IFCGEOMETRICREPRESENTATIONCONTEXT('Model','Model',3,1.E-05,#714,$);
#716=IFCSHAPEREPRESENTATION(#715,'Body','SweptSolid',(#710));
#717=IFCPRODUCTDEFINITIONSHAPE($,$,(#716));
#718=IFCSANITARYTERMINAL('16AmpYHd122RJ_$3M1Z_P2',#6,'PV_098','Manhole','Manhole',#705,#717,$,$);
#719=IFCDIRECTION((0.,0.,1.));
#720=IFCDIRECTION((1.,0.,0.));
#721=IFCCARTESIANPOINT((361401.22682653,7351658.90380651,24.0808));
#722=IFCAXIS2PLACEMENT3D(#721,#719,#720);
#723=IFCLOCALPLACEMENT($,#722);
#724=IFCCARTESIANPOINT((0.,0.));
#725=IFCAXIS2PLACEMENT2D(#724,$);
#726=IFCCIRCLE(#725,0.6);
#727=IFCDIRECTION((0.,0.,1.));
#728=IFCEXTRUDEDAREASOLID(#726,$,#727,1.);
#729=IFCCARTESIANPOINT((0.,0.,0.));
#730=IFCDIRECTION((0.,0.,1.));
#731=IFCDIRECTION((1.,0.,0.));
#732=IFCAXIS2PLACEMENT3D(#729,#730,#731);
#733=IFCGEOMETRICREPRESENTATIONCONTEXT('Model','Model',3,1.E-05,#732,$);
#734=IFCSHAPEREPRESENTATION(#733,'Body','SweptSolid',(#728));
#735=IFCPRODUCTDEFINITIONSHAPE($,$,(#734));
#736=IFCSANITARYTERMINAL('2IJHNNrX5EWRKfb0BkPKpm',#6,'PV_099','Manhole','Manhole',#723,#735,$,$);
#737=IFCDIRECTION((0.,0.,1.));
#738=IFCDIRECTION((1.,0.,0.));
#739=IFCCARTESIANPOINT((361392.166346217,7351657.54534836,24.1048));
#740=IFCAXIS2PLACEMENT3D(#739,#737,#738);
#741=IFCLOCALPLACEMENT($,#740);
#742=IFCCARTESIANPOINT((0.,0.));
#743=IFCAXIS2PLACEMENT2D(#742,$);
#744=IFCCIRCLE(#743,0.6);
#745=IFCDIRECTION((0.,0.,1.));
#746=IFCEXTRUDEDAREASOLID(#744,$,#745,1.);
#747=IFCCARTESIANPOINT((0.,0.,0.));
#748=IFCDIRECTION((0.,0.,1.));
#749=IFCDIRECTION((1.,0.,0.));
#750=IFCAXIS2PLACEMENT3D(#747,#748,#749);
#751=IFCGEOMETRICREPRESENTATIONCONTEXT('Model','Model',3,1.E-05,#750,$);
#752=IFCSHAPEREPRESENTATION(#751,'Body','SweptSolid',(#746));
#753=IFCPRODUCTDEFINITIONSHAPE($,$,(#752));
#754=IFCSANITARYTERMINAL('2fvZGqfUT3mxd4AFaIa6Ar',#6,'PV_100','Manhole','Manhole',#741,#753,$,$);
#755=IFCDIRECTION((0.,0.,1.));
#756=IFCDIRECTION((1.,0.,0.));
#757=IFCCARTESIANPOINT((361422.055019277,7351611.81873879,6.49));
#758=IFCAXIS2PLACEMENT3D(#757,#755,#756);
#759=IFCLOCALPLACEMENT($,#758);
#760=IFCCARTESIANPOINT((0.,0.));
#761=IFCAXIS2PLACEMENT2D(#760,$);
#762=IFCCIRCLE(#761,0.6);
#763=IFCDIRECTION((0.,0.,1.));
#764=IFCEXTRUDEDAREASOLID(#762,$,#763,1.);
#765=IFCCARTESIANPOINT((0.,0.,0.));
#766=IFCDIRECTION((0.,0.,1.));
#767=IFCDIRECTION((1.,0.,0.));
#768=IFCAXIS2PLACEMENT3D(#765,#766,#767);
#769=IFCGEOMETRICREPRESENTATIONCONTEXT('Model','Model',3,1.E-05,#768,$);
#770=IFCSHAPEREPRESENTATION(#769,'Body','SweptSolid',(#764));
#771=IFCPRODUCTDEFINITIONSHAPE($,$,(#770));
#772=IFCSANITARYTERMINAL('1kQW3zMHb6E8rPgsq9igpC',#6,'PV_060','Manhole','Manhole',#759,#771,$,$);
#773=IFCDIRECTION((0.,0.,1.));
#774=IFCDIRECTION((1.,0.,0.));
#775=IFCCARTESIANPOINT((361415.692991793,7351608.99438361,5.8469));
#776=IFCAXIS2PLACEMENT3D(#775,#773,#774);
#777=IFCLOCALPLACEMENT($,#776);
#778=IFCCARTESIANPOINT((0.,0.));
#779=IFCAXIS2PLACEMENT2D(#778,$);
#780=IFCCIRCLE(#779,0.6);
#781=IFCDIRECTION((0.,0.,1.));
#782=IFCEXTRUDEDAREASOLID(#780,$,#781,1.);
#783=IFCCARTESIANPOINT((0.,0.,0.));
#784=IFCDIRECTION((0.,0.,1.));
#785=IFCDIRECTION((1.,0.,0.));
#786=IFCAXIS2PLACEMENT3D(#783,#784,#785);
#787=IFCGEOMETRICREPRESENTATIONCONTEXT('Model','Model',3,1.E-05,#786,$);
#788=IFCSHAPEREPRESENTATION(#787,'Body','SweptSolid',(#782));
#789=IFCPRODUCTDEFINITIONSHAPE($,$,(#788));
#790=IFCSANITARYTERMINAL('0MjQ4w_dbDbgpBwEIgdoFk',#6,'PV_061','Manhole','Manhole',#777,#789,$,$);
#791=IFCDIRECTION((0.,0.,1.));
#792=IFCDIRECTION((1.,0.,0.));
#793=IFCCARTESIANPOINT((361403.350400091,7351604.78940531,5.5311));
#794=IFCAXIS2PLACEMENT3D(#793,#791,#792);
#795=IFCLOCALPLACEMENT($,#794);
#796=IFCCARTESIANPOINT((0.,0.));
#797=IFCAXIS2PLACEMENT2D(#796,$);
#798=IFCCIRCLE(#797,0.6);
#799=IFCDIRECTION((0.,0.,1.));
#800=IFCEXTRUDEDAREASOLID(#798,$,#799,1.);
#801=IFCCARTESIANPOINT((0.,0.,0.));
#802=IFCDIRECTION((0.,0.,1.));
#803=IFCDIRECTION((1.,0.,0.));
#804=IFCAXIS2PLACEMENT3D(#801,#802,#803);
#805=IFCGEOMETRICREPRESENTATIONCONTEXT('Model','Model',3,1.E-05,#804,$);
#806=IFCSHAPEREPRESENTATION(#805,'Body','SweptSolid',(#800));
#807=IFCPRODUCTDEFINITIONSHAPE($,$,(#806));
#808=IFCSANITARYTERMINAL('1qnEUMKQD2dfp_MwPVYQf6',#6,'PV_062','Manhole','Manhole',#795,#807,$,$);
#809=IFCDIRECTION((0.,0.,1.));
#810=IFCDIRECTION((1.,0.,0.));
#811=IFCCARTESIANPOINT((361384.418920901,7351598.33966922,5.0466));
#812=IFCAXIS2PLACEMENT3D(#811,#809,#810);
#813=IFCLOCALPLACEMENT($,#812);
#814=IFCCARTESIANPOINT((0.,0.));
#815=IFCAXIS2PLACEMENT2D(#814,$);
#816=IFCCIRCLE(#815,0.6);
#817=IFCDIRECTION((0.,0.,1.));
#818=IFCEXTRUDEDAREASOLID(#816,$,#817,1.);
#819=IFCCARTESIANPOINT((0.,0.,0.));
#820=IFCDIRECTION((0.,0.,1.));
#821=IFCDIRECTION((1.,0.,0.));
#822=IFCAXIS2PLACEMENT3D(#819,#820,#821);
#823=IFCGEOMETRICREPRESENTATIONCONTEXT('Model','Model',3,1.E-05,#822,$);
#824=IFCSHAPEREPRESENTATION(#823,'Body','SweptSolid',(#818));
#825=IFCPRODUCTDEFINITIONSHAPE($,$,(#824));
#826=IFCSANITARYTERMINAL('1ZDAua8tf7thFBO8M36Bht',#6,'PV_063','Manhole','Manhole',#813,#825,$,$);
#827=IFCDIRECTION((0.,0.,1.));
#828=IFCDIRECTION((1.,0.,0.));
#829=IFCCARTESIANPOINT((361365.487441711,7351591.88993313,4.5621));
#830=IFCAXIS2PLACEMENT3D(#829,#827,#828);
#831=IFCLOCALPLACEMENT($,#830);
#832=IFCCARTESIANPOINT((0.,0.));
#833=IFCAXIS2PLACEMENT2D(#832,$);
#834=IFCCIRCLE(#833,0.6);
#835=IFCDIRECTION((0.,0.,1.));
#836=IFCEXTRUDEDAREASOLID(#834,$,#835,1.);
#837=IFCCARTESIANPOINT((0.,0.,0.));
#838=IFCDIRECTION((0.,0.,1.));
#839=IFCDIRECTION((1.,0.,0.));
#840=IFCAXIS2PLACEMENT3D(#837,#838,#839);
#841=IFCGEOMETRICREPRESENTATIONCONTEXT('Model','Model',3,1.E-05,#840,$);
#842=IFCSHAPEREPRESENTATION(#841,'Body','SweptSolid',(#836));
#843=IFCPRODUCTDEFINITIONSHAPE($,$,(#842));
#844=IFCSANITARYTERMINAL('2SMYuiaMD40fUA4Cig5zjr',#6,'PV_064','Manhole','Manhole',#831,#843,$,$);
#845=IFCDIRECTION((0.,0.,1.));
#846=IFCDIRECTION((1.,0.,0.));
#847=IFCCARTESIANPOINT((361346.55596252,7351585.44019703,4.0777));
#848=IFCAXIS2PLACEMENT3D(#847,#845,#846);
#849=IFCLOCALPLACEMENT($,#848);
#850=IFCCARTESIANPOINT((0.,0.));
#851=IFCAXIS2PLACEMENT2D(#850,$);
#852=IFCCIRCLE(#851,0.6);
#853=IFCDIRECTION((0.,0.,1.));
#854=IFCEXTRUDEDAREASOLID(#852,$,#853,1.);
#855=IFCCARTESIANPOINT((0.,0.,0.));
#856=IFCDIRECTION((0.,0.,1.));
#857=IFCDIRECTION((1.,0.,0.));
#858=IFCAXIS2PLACEMENT3D(#855,#856,#857);
#859=IFCGEOMETRICREPRESENTATIONCONTEXT('Model','Model',3,1.E-05,#858,$);
#860=IFCSHAPEREPRESENTATION(#859,'Body','SweptSolid',(#854));
#861=IFCPRODUCTDEFINITIONSHAPE($,$,(#860));
#862=IFCSANITARYTERMINAL('2el3G6AFrFEgOG_LA6$EIg',#6,'PV_065','Manhole','Manhole',#849,#861,$,$);
#863=IFCDIRECTION((0.,0.,1.));
#864=IFCDIRECTION((1.,0.,0.));
#865=IFCCARTESIANPOINT((361342.063194461,7351583.9095629,3.9627));
#866=IFCAXIS2PLACEMENT3D(#865,#863,#864);
#867=IFCLOCALPLACEMENT($,#866);
#868=IFCCARTESIANPOINT((0.,0.));
#869=IFCAXIS2PLACEMENT2D(#868,$);
#870=IFCCIRCLE(#869,0.6);
#871=IFCDIRECTION((0.,0.,1.));
#872=IFCEXTRUDEDAREASOLID(#870,$,#871,1.);
#873=IFCCARTESIANPOINT((0.,0.,0.));
#874=IFCDIRECTION((0.,0.,1.));
#875=IFCDIRECTION((1.,0.,0.));
#876=IFCAXIS2PLACEMENT3D(#873,#874,#875);
#877=IFCGEOMETRICREPRESENTATIONCONTEXT('Model','Model',3,1.E-05,#876,$);
#878=IFCSHAPEREPRESENTATION(#877,'Body','SweptSolid',(#872));
#879=IFCPRODUCTDEFINITIONSHAPE($,$,(#878));
#880=IFCSANITARYTERMINAL('2xTSHz7M1Frf22cvpMWav_',#6,'PV_066','Manhole','Manhole',#867,#879,$,$);
#881=IFCDIRECTION((0.,0.,1.));
#882=IFCDIRECTION((1.,0.,0.));
#883=IFCCARTESIANPOINT((361260.95279,7351678.8088,3.1874));
#884=IFCAXIS2PLACEMENT3D(#883,#881,#882);
#885=IFCLOCALPLACEMENT($,#884);
#886=IFCCARTESIANPOINT((0.,0.));
#887=IFCAXIS2PLACEMENT2D(#886,$);
#888=IFCCIRCLE(#887,0.6);
#889=IFCDIRECTION((0.,0.,1.));
#890=IFCEXTRUDEDAREASOLID(#888,$,#889,1.);
#891=IFCCARTESIANPOINT((0.,0.,0.));
#892=IFCDIRECTION((0.,0.,1.));
#893=IFCDIRECTION((1.,0.,0.));
#894=IFCAXIS2PLACEMENT3D(#891,#892,#893);
#895=IFCGEOMETRICREPRESENTATIONCONTEXT('Model','Model',3,1.E-05,#894,$);
#896=IFCSHAPEREPRESENTATION(#895,'Body','SweptSolid',(#890));
#897=IFCPRODUCTDEFINITIONSHAPE($,$,(#896));
#898=IFCSANITARYTERMINAL('1maPdc2r56Tw__RZSAdKFc',#6,'PV_036','Manhole','Manhole',#885,#897,$,$);
#899=IFCDIRECTION((0.,0.,1.));
#900=IFCDIRECTION((1.,0.,0.));
#901=IFCCARTESIANPOINT((361267.188775561,7351656.46537278,2.9955));
#902=IFCAXIS2PLACEMENT3D(#901,#899,#900);
#903=IFCLOCALPLACEMENT($,#902);
#904=IFCCARTESIANPOINT((0.,0.));
#905=IFCAXIS2PLACEMENT2D(#904,$);
#906=IFCCIRCLE(#905,0.6);
#907=IFCDIRECTION((0.,0.,1.));
#908=IFCEXTRUDEDAREASOLID(#906,$,#907,1.);
#909=IFCCARTESIANPOINT((0.,0.,0.));
#910=IFCDIRECTION((0.,0.,1.));
#911=IFCDIRECTION((1.,0.,0.));
#912=IFCAXIS2PLACEMENT3D(#909,#910,#911);
#913=IFCGEOMETRICREPRESENTATIONCONTEXT('Model','Model',3,1.E-05,#912,$);
#914=IFCSHAPEREPRESENTATION(#913,'Body','SweptSolid',(#908));
#915=IFCPRODUCTDEFINITIONSHAPE($,$,(#914));
#916=IFCSANITARYTERMINAL('3Cw_gk0QP6Xwh2Kc2HA2Ae',#6,'PV_037','Manhole','Manhole',#903,#915,$,$);
#917=IFCDIRECTION((0.,0.,1.));
#918=IFCDIRECTION((1.,0.,0.));
#919=IFCCARTESIANPOINT((361273.599249428,7351637.44199249,2.6668));
#920=IFCAXIS2PLACEMENT3D(#919,#917,#918);
#921=IFCLOCALPLACEMENT($,#920);
#922=IFCCARTESIANPOINT((0.,0.));
#923=IFCAXIS2PLACEMENT2D(#922,$);
#924=IFCCIRCLE(#923,0.6);
#925=IFCDIRECTION((0.,0.,1.));
#926=IFCEXTRUDEDAREASOLID(#924,$,#925,1.);
#927=IFCCARTESIANPOINT((0.,0.,0.));
#928=IFCDIRECTION((0.,0.,1.));
#929=IFCDIRECTION((1.,0.,0.));
#930=IFCAXIS2PLACEMENT3D(#927,#928,#929);
#931=IFCGEOMETRICREPRESENTATIONCONTEXT('Model','Model',3,1.E-05,#930,$);
#932=IFCSHAPEREPRESENTATION(#931,'Body','SweptSolid',(#926));
#933=IFCPRODUCTDEFINITIONSHAPE($,$,(#932));
#934=IFCSANITARYTERMINAL('2OCPwqrr99OA79leGz_88A',#6,'PV_038','Manhole','Manhole',#921,#933,$,$);
#935=IFCDIRECTION((0.,0.,1.));
#936=IFCDIRECTION((1.,0.,0.));
#937=IFCCARTESIANPOINT((361252.561785945,7351696.77011007,3.2104));
#938=IFCAXIS2PLACEMENT3D(#937,#935,#936);
#939=IFCLOCALPLACEMENT($,#938);
#940=IFCCARTESIANPOINT((0.,0.));
#941=IFCAXIS2PLACEMENT2D(#940,$);
#942=IFCCIRCLE(#941,0.6);
#943=IFCDIRECTION((0.,0.,1.));
#944=IFCEXTRUDEDAREASOLID(#942,$,#943,1.);
#945=IFCCARTESIANPOINT((0.,0.,0.));
#946=IFCDIRECTION((0.,0.,1.));
#947=IFCDIRECTION((1.,0.,0.));
#948=IFCAXIS2PLACEMENT3D(#945,#946,#947);
#949=IFCGEOMETRICREPRESENTATIONCONTEXT('Model','Model',3,1.E-05,#948,$);
#950=IFCSHAPEREPRESENTATION(#949,'Body','SweptSolid',(#944));
#951=IFCPRODUCTDEFINITIONSHAPE($,$,(#950));
#952=IFCSANITARYTERMINAL('3GgqLKwejF4Owrh2_ynOVJ',#6,'PV_039','Manhole','Manhole',#939,#951,$,$);
#953=IFCDIRECTION((0.,0.,1.));
#954=IFCDIRECTION((1.,0.,0.));
#955=IFCCARTESIANPOINT((361176.411425858,7351699.67310182,4.3709));
#956=IFCAXIS2PLACEMENT3D(#955,#953,#954);
#957=IFCLOCALPLACEMENT($,#956);
#958=IFCCARTESIANPOINT((0.,0.));
#959=IFCAXIS2PLACEMENT2D(#958,$);
#960=IFCCIRCLE(#959,0.6);
#961=IFCDIRECTION((0.,0.,1.));
#962=IFCEXTRUDEDAREASOLID(#960,$,#961,1.);
#963=IFCCARTESIANPOINT((0.,0.,0.));
#964=IFCDIRECTION((0.,0.,1.));
#965=IFCDIRECTION((1.,0.,0.));
#966=IFCAXIS2PLACEMENT3D(#963,#964,#965);
#967=IFCGEOMETRICREPRESENTATIONCONTEXT('Model','Model',3,1.E-05,#966,$);
#968=IFCSHAPEREPRESENTATION(#967,'Body','SweptSolid',(#962));
#969=IFCPRODUCTDEFINITIONSHAPE($,$,(#968));
#970=IFCSANITARYTERMINAL('06xJdEpDP9puzGcThVCv5z',#6,'PV_040','Manhole','Manhole',#957,#969,$,$);
#971=IFCDIRECTION((0.,0.,1.));
#972=IFCDIRECTION((1.,0.,0.));
#973=IFCCARTESIANPOINT((361124.343287008,7351510.93256745,3.4005));
#974=IFCAXIS2PLACEMENT3D(#973,#971,#972);
#975=IFCLOCALPLACEMENT($,#974);
#976=IFCCARTESIANPOINT((0.,0.));
#977=IFCAXIS2PLACEMENT2D(#976,$);
#978=IFCCIRCLE(#977,0.6);
#979=IFCDIRECTION((0.,0.,1.));
#980=IFCEXTRUDEDAREASOLID(#978,$,#979,1.);
#981=IFCCARTESIANPOINT((0.,0.,0.));
#982=IFCDIRECTION((0.,0.,1.));
#983=IFCDIRECTION((1.,0.,0.));
#984=IFCAXIS2PLACEMENT3D(#981,#982,#983);
#985=IFCGEOMETRICREPRESENTATIONCONTEXT('Model','Model',3,1.E-05,#984,$);
#986=IFCSHAPEREPRESENTATION(#985,'Body','SweptSolid',(#980));
#987=IFCPRODUCTDEFINITIONSHAPE($,$,(#986));
#988=IFCSANITARYTERMINAL('1dT9Dz9EX6f9X_kU5kFhs1',#6,'PV_046','Manhole','Manhole',#975,#987,$,$);
#989=IFCDIRECTION((0.,0.,1.));
#990=IFCDIRECTION((1.,0.,0.));
#991=IFCCARTESIANPOINT((361064.043226214,7351418.56996146,4.3906));
#992=IFCAXIS2PLACEMENT3D(#991,#989,#990);
#993=IFCLOCALPLACEMENT($,#992);
#994=IFCCARTESIANPOINT((0.,0.));
#995=IFCAXIS2PLACEMENT2D(#994,$);
#996=IFCCIRCLE(#995,0.6);
#997=IFCDIRECTION((0.,0.,1.));
#998=IFCEXTRUDEDAREASOLID(#996,$,#997,1.);
#999=IFCCARTESIANPOINT((0.,0.,0.));
#1000=IFCDIRECTION((0.,0.,1.));
#1001=IFCDIRECTION((1.,0.,0.));
#1002=IFCAXIS2PLACEMENT3D(#999,#1000,#1001);
#1003=IFCGEOMETRICREPRESENTATIONCONTEXT('Model','Model',3,1.E-05,#1002,$);
#1004=IFCSHAPEREPRESENTATION(#1003,'Body','SweptSolid',(#998));
#1005=IFCPRODUCTDEFINITIONSHAPE($,$,(#1004));
#1006=IFCSANITARYTERMINAL('0WfKvrgm59WhRbE3VxAT$0',#6,'PV_050','Manhole','Manhole',#993,#1005,$,$);
#1007=IFCDIRECTION((0.,0.,1.));
#1008=IFCDIRECTION((1.,0.,0.));
#1009=IFCCARTESIANPOINT((361272.179037176,7351658.69832036,3.6));
#1010=IFCAXIS2PLACEMENT3D(#1009,#1007,#1008);
#1011=IFCLOCALPLACEMENT($,#1010);
#1012=IFCCARTESIANPOINT((0.,0.));
#1013=IFCAXIS2PLACEMENT2D(#1012,$);
#1014=IFCCIRCLE(#1013,0.6);
#1015=IFCDIRECTION((0.,0.,1.));
#1016=IFCEXTRUDEDAREASOLID(#1014,$,#1015,1.);
#1017=IFCCARTESIANPOINT((0.,0.,0.));
#1018=IFCDIRECTION((0.,0.,1.));
#1019=IFCDIRECTION((1.,0.,0.));
#1020=IFCAXIS2PLACEMENT3D(#1017,#1018,#1019);
#1021=IFCGEOMETRICREPRESENTATIONCONTEXT('Model','Model',3,1.E-05,#1020,$);
#1022=IFCSHAPEREPRESENTATION(#1021,'Body','SweptSolid',(#1016));
#1023=IFCPRODUCTDEFINITIONSHAPE($,$,(#1022));
#1024=IFCSANITARYTERMINAL('1nY9IZ0mb3GQwdpmUWA0P8',#6,'PV_084','Manhole','Manhole',#1011,#1023,$,$);
#1025=IFCDIRECTION((0.,0.,1.));
#1026=IFCDIRECTION((1.,0.,0.));
#1027=IFCCARTESIANPOINT((0.,0.,0.));
#1028=IFCAXIS2PLACEMENT3D(#1027,#1025,#1026);
#1029=IFCLOCALPLACEMENT($,#1028);
#1030=IFCCARTESIANPOINT((0.,0.));
#1031=IFCAXIS2PLACEMENT2D(#1030,$);
#1032=IFCCIRCLE(#1031,0.1);
#1033=IFCDIRECTION((1.,0.,0.));
#1034=IFCEXTRUDEDAREASOLID(#1032,$,#1033,23.6454900763039);
#1035=IFCCARTESIANPOINT((0.,0.,0.));
#1036=IFCDIRECTION((0.,0.,1.));
#1037=IFCDIRECTION((1.,0.,0.));
#1038=IFCAXIS2PLACEMENT3D(#1035,#1036,#1037);
#1039=IFCGEOMETRICREPRESENTATIONCONTEXT('Model','Model',3,1.E-05,#1038,$);
#1040=IFCSHAPEREPRESENTATION(#1039,'Body','SweptSolid',(#1034));
#1041=IFCPRODUCTDEFINITIONSHAPE($,$,(#1040));
#1042=IFCPIPESEGMENT('196Wv2QMDFnePopzuoE5Z5',#6,'TUBO_PV_033_TO_PV_034','Pipe','Pipe',#1029,#1041,$,.USERDEFINED.);
#1043=IFCDIRECTION((0.,0.,1.));
#1044=IFCDIRECTION((1.,0.,0.));
#1045=IFCCARTESIANPOINT((0.,0.,0.));
#1046=IFCAXIS2PLACEMENT3D(#1045,#1043,#1044);
#1047=IFCLOCALPLACEMENT($,#1046);
#1048=IFCCARTESIANPOINT((0.,0.));
#1049=IFCAXIS2PLACEMENT2D(#1048,$);
#1050=IFCCIRCLE(#1049,0.1);
#1051=IFCDIRECTION((1.,0.,0.));
#1052=IFCEXTRUDEDAREASOLID(#1050,$,#1051,6.36999741858579);
#1053=IFCCARTESIANPOINT((0.,0.,0.));
#1054=IFCDIRECTION((0.,0.,1.));
#1055=IFCDIRECTION((1.,0.,0.));
#1056=IFCAXIS2PLACEMENT3D(#1053,#1054,#1055);
#1057=IFCGEOMETRICREPRESENTATIONCONTEXT('Model','Model',3,1.E-05,#1056,$);
#1058=IFCSHAPEREPRESENTATION(#1057,'Body','SweptSolid',(#1052));
#1059=IFCPRODUCTDEFINITIONSHAPE($,$,(#1058));
#1060=IFCPIPESEGMENT('2HYU88zen1nx6AWZ1tTOll',#6,'TUBO_PV_034_TO_PV_041','Pipe','Pipe',#1047,#1059,$,.USERDEFINED.);
#1061=IFCDIRECTION((0.,0.,1.));
#1062=IFCDIRECTION((1.,0.,0.));
#1063=IFCCARTESIANPOINT((0.,0.,0.));
#1064=IFCAXIS2PLACEMENT3D(#1063,#1061,#1062);
#1065=IFCLOCALPLACEMENT($,#1064);
#1066=IFCCARTESIANPOINT((0.,0.));
#1067=IFCAXIS2PLACEMENT2D(#1066,$);
#1068=IFCCIRCLE(#1067,0.1);
#1069=IFCDIRECTION((1.,0.,0.));
#1070=IFCEXTRUDEDAREASOLID(#1068,$,#1069,9.74140348758592);
#1071=IFCCARTESIANPOINT((0.,0.,0.));
#1072=IFCDIRECTION((0.,0.,1.));
#1073=IFCDIRECTION((1.,0.,0.));
#1074=IFCAXIS2PLACEMENT3D(#1071,#1072,#1073);
#1075=IFCGEOMETRICREPRESENTATIONCONTEXT('Model','Model',3,1.E-05,#1074,$);
#1076=IFCSHAPEREPRESENTATION(#1075,'Body','SweptSolid',(#1070));
#1077=IFCPRODUCTDEFINITIONSHAPE($,$,(#1076));
#1078=IFCPIPESEGMENT('3d7UmCHRDBJR_B5phDOnJ0',#6,'TUBO_PV_041_TO_PV_042','Pipe','Pipe',#1065,#1077,$,.USERDEFINED.);
#1079=IFCDIRECTION((0.,0.,1.));
#1080=IFCDIRECTION((1.,0.,0.));
#1081=IFCCARTESIANPOINT((0.,0.,0.));
#1082=IFCAXIS2PLACEMENT3D(#1081,#1079,#1080);
#1083=IFCLOCALPLACEMENT($,#1082);
#1084=IFCCARTESIANPOINT((0.,0.));
#1085=IFCAXIS2PLACEMENT2D(#1084,$);
#1086=IFCCIRCLE(#1085,0.1);
#1087=IFCDIRECTION((1.,0.,0.));
#1088=IFCEXTRUDEDAREASOLID(#1086,$,#1087,10.4746313118268);
#1089=IFCCARTESIANPOINT((0.,0.,0.));
#1090=IFCDIRECTION((0.,0.,1.));
#1091=IFCDIRECTION((1.,0.,0.));
#1092=IFCAXIS2PLACEMENT3D(#1089,#1090,#1091);
#1093=IFCGEOMETRICREPRESENTATIONCONTEXT('Model','Model',3,1.E-05,#1092,$);
#1094=IFCSHAPEREPRESENTATION(#1093,'Body','SweptSolid',(#1088));
#1095=IFCPRODUCTDEFINITIONSHAPE($,$,(#1094));
#1096=IFCPIPESEGMENT('0nbr611FrBtfa68LVJCWFn',#6,'TUBO_PV_042_TO_PV_043','Pipe','Pipe',#1083,#1095,$,.USERDEFINED.);
#1097=IFCDIRECTION((0.,0.,1.));
#1098=IFCDIRECTION((1.,0.,0.));
#1099=IFCCARTESIANPOINT((0.,0.,0.));
#1100=IFCAXIS2PLACEMENT3D(#1099,#1097,#1098);
#1101=IFCLOCALPLACEMENT($,#1100);
#1102=IFCCARTESIANPOINT((0.,0.));
#1103=IFCAXIS2PLACEMENT2D(#1102,$);
#1104=IFCCIRCLE(#1103,0.1);
#1105=IFCDIRECTION((1.,0.,0.));
#1106=IFCEXTRUDEDAREASOLID(#1104,$,#1105,7.04669831942966);
#1107=IFCCARTESIANPOINT((0.,0.,0.));
#1108=IFCDIRECTION((0.,0.,1.));
#1109=IFCDIRECTION((1.,0.,0.));
#1110=IFCAXIS2PLACEMENT3D(#1107,#1108,#1109);
#1111=IFCGEOMETRICREPRESENTATIONCONTEXT('Model','Model',3,1.E-05,#1110,$);
#1112=IFCSHAPEREPRESENTATION(#1111,'Body','SweptSolid',(#1106));
#1113=IFCPRODUCTDEFINITIONSHAPE($,$,(#1112));
#1114=IFCPIPESEGMENT('1iNpuiQDfFSR71f80Byp4x',#6,'TUBO_PV_043_TO_PV_044','Pipe','Pipe',#1101,#1113,$,.USERDEFINED.);
#1115=IFCDIRECTION((0.,0.,1.));
#1116=IFCDIRECTION((1.,0.,0.));
#1117=IFCCARTESIANPOINT((0.,0.,0.));
#1118=IFCAXIS2PLACEMENT3D(#1117,#1115,#1116);
#1119=IFCLOCALPLACEMENT($,#1118);
#1120=IFCCARTESIANPOINT((0.,0.));
#1121=IFCAXIS2PLACEMENT2D(#1120,$);
#1122=IFCCIRCLE(#1121,0.1);
#1123=IFCDIRECTION((1.,0.,0.));
#1124=IFCEXTRUDEDAREASOLID(#1122,$,#1123,8.15572761488676);
#1125=IFCCARTESIANPOINT((0.,0.,0.));
#1126=IFCDIRECTION((0.,0.,1.));
#1127=IFCDIRECTION((1.,0.,0.));
#1128=IFCAXIS2PLACEMENT3D(#1125,#1126,#1127);
#1129=IFCGEOMETRICREPRESENTATIONCONTEXT('Model','Model',3,1.E-05,#1128,$);
#1130=IFCSHAPEREPRESENTATION(#1129,'Body','SweptSolid',(#1124));
#1131=IFCPRODUCTDEFINITIONSHAPE($,$,(#1130));
#1132=IFCPIPESEGMENT('2bz8tEvZrA2Rh20_IFi8jz',#6,'TUBO_PV_044_TO_PV_045','Pipe','Pipe',#1119,#1131,$,.USERDEFINED.);
#1133=IFCDIRECTION((0.,0.,1.));
#1134=IFCDIRECTION((1.,0.,0.));
#1135=IFCCARTESIANPOINT((0.,0.,0.));
#1136=IFCAXIS2PLACEMENT3D(#1135,#1133,#1134);
#1137=IFCLOCALPLACEMENT($,#1136);
#1138=IFCCARTESIANPOINT((0.,0.));
#1139=IFCAXIS2PLACEMENT2D(#1138,$);
#1140=IFCCIRCLE(#1139,0.1);
#1141=IFCDIRECTION((1.,0.,0.));
#1142=IFCEXTRUDEDAREASOLID(#1140,$,#1141,8.3826319008322);
#1143=IFCCARTESIANPOINT((0.,0.,0.));
#1144=IFCDIRECTION((0.,0.,1.));
#1145=IFCDIRECTION((1.,0.,0.));
#1146=IFCAXIS2PLACEMENT3D(#1143,#1144,#1145);
#1147=IFCGEOMETRICREPRESENTATIONCONTEXT('Model','Model',3,1.E-05,#1146,$);
#1148=IFCSHAPEREPRESENTATION(#1147,'Body','SweptSolid',(#1142));
#1149=IFCPRODUCTDEFINITIONSHAPE($,$,(#1148));
#1150=IFCPIPESEGMENT('3cFjIpxxr3ZRVzpbL7$aDN',#6,'TUBO_PV_045_TO_PV_272','Pipe','Pipe',#1137,#1149,$,.USERDEFINED.);
#1151=IFCDIRECTION((0.,0.,1.));
#1152=IFCDIRECTION((1.,0.,0.));
#1153=IFCCARTESIANPOINT((0.,0.,0.));
#1154=IFCAXIS2PLACEMENT3D(#1153,#1151,#1152);
#1155=IFCLOCALPLACEMENT($,#1154);
#1156=IFCCARTESIANPOINT((0.,0.));
#1157=IFCAXIS2PLACEMENT2D(#1156,$);
#1158=IFCCIRCLE(#1157,0.1);
#1159=IFCDIRECTION((1.,0.,0.));
#1160=IFCEXTRUDEDAREASOLID(#1158,$,#1159,9.01584582056842);
#1161=IFCCARTESIANPOINT((0.,0.,0.));
#1162=IFCDIRECTION((0.,0.,1.));
#1163=IFCDIRECTION((1.,0.,0.));
#1164=IFCAXIS2PLACEMENT3D(#1161,#1162,#1163);
#1165=IFCGEOMETRICREPRESENTATIONCONTEXT('Model','Model',3,1.E-05,#1164,$);
#1166=IFCSHAPEREPRESENTATION(#1165,'Body','SweptSolid',(#1160));
#1167=IFCPRODUCTDEFINITIONSHAPE($,$,(#1166));
#1168=IFCPIPESEGMENT('2zeHFxQ9v0seaycDRTETKy',#6,'TUBO_PV_272_TO_PV_047','Pipe','Pipe',#1155,#1167,$,.USERDEFINED.);
#1169=IFCDIRECTION((0.,0.,1.));
#1170=IFCDIRECTION((1.,0.,0.));
#1171=IFCCARTESIANPOINT((0.,0.,0.));
#1172=IFCAXIS2PLACEMENT3D(#1171,#1169,#1170);
#1173=IFCLOCALPLACEMENT($,#1172);
#1174=IFCCARTESIANPOINT((0.,0.));
#1175=IFCAXIS2PLACEMENT2D(#1174,$);
#1176=IFCCIRCLE(#1175,0.1);
#1177=IFCDIRECTION((1.,0.,0.));
#1178=IFCEXTRUDEDAREASOLID(#1176,$,#1177,6.81530194561396);
#1179=IFCCARTESIANPOINT((0.,0.,0.));
#1180=IFCDIRECTION((0.,0.,1.));
#1181=IFCDIRECTION((1.,0.,0.));
#1182=IFCAXIS2PLACEMENT3D(#1179,#1180,#1181);
#1183=IFCGEOMETRICREPRESENTATIONCONTEXT('Model','Model',3,1.E-05,#1182,$);
#1184=IFCSHAPEREPRESENTATION(#1183,'Body','SweptSolid',(#1178));
#1185=IFCPRODUCTDEFINITIONSHAPE($,$,(#1184));
#1186=IFCPIPESEGMENT('1_qdEbLhDCZ8uH2CCT$_A9',#6,'TUBO_PV_047_TO_PV_048','Pipe','Pipe',#1173,#1185,$,.USERDEFINED.);
#1187=IFCDIRECTION((0.,0.,1.));
#1188=IFCDIRECTION((1.,0.,0.));
#1189=IFCCARTESIANPOINT((0.,0.,0.));
#1190=IFCAXIS2PLACEMENT3D(#1189,#1187,#1188);
#1191=IFCLOCALPLACEMENT($,#1190);
#1192=IFCCARTESIANPOINT((0.,0.));
#1193=IFCAXIS2PLACEMENT2D(#1192,$);
#1194=IFCCIRCLE(#1193,0.1);
#1195=IFCDIRECTION((1.,0.,0.));
#1196=IFCEXTRUDEDAREASOLID(#1194,$,#1195,5.864521213196);
#1197=IFCCARTESIANPOINT((0.,0.,0.));
#1198=IFCDIRECTION((0.,0.,1.));
#1199=IFCDIRECTION((1.,0.,0.));
#1200=IFCAXIS2PLACEMENT3D(#1197,#1198,#1199);
#1201=IFCGEOMETRICREPRESENTATIONCONTEXT('Model','Model',3,1.E-05,#1200,$);
#1202=IFCSHAPEREPRESENTATION(#1201,'Body','SweptSolid',(#1196));
#1203=IFCPRODUCTDEFINITIONSHAPE($,$,(#1202));
#1204=IFCPIPESEGMENT('0Sda3fNov3Oh0Q3jre0DNO',#6,'TUBO_PV_048_TO_PV_049','Pipe','Pipe',#1191,#1203,$,.USERDEFINED.);
#1205=IFCDIRECTION((0.,0.,1.));
#1206=IFCDIRECTION((1.,0.,0.));
#1207=IFCCARTESIANPOINT((0.,0.,0.));
#1208=IFCAXIS2PLACEMENT3D(#1207,#1205,#1206);
#1209=IFCLOCALPLACEMENT($,#1208);
#1210=IFCCARTESIANPOINT((0.,0.));
#1211=IFCAXIS2PLACEMENT2D(#1210,$);
#1212=IFCCIRCLE(#1211,0.1);
#1213=IFCDIRECTION((1.,0.,0.));
#1214=IFCEXTRUDEDAREASOLID(#1212,$,#1213,18.6348566939083);
#1215=IFCCARTESIANPOINT((0.,0.,0.));
#1216=IFCDIRECTION((0.,0.,1.));
#1217=IFCDIRECTION((1.,0.,0.));
#1218=IFCAXIS2PLACEMENT3D(#1215,#1216,#1217);
#1219=IFCGEOMETRICREPRESENTATIONCONTEXT('Model','Model',3,1.E-05,#1218,$);
#1220=IFCSHAPEREPRESENTATION(#1219,'Body','SweptSolid',(#1214));
#1221=IFCPRODUCTDEFINITIONSHAPE($,$,(#1220));
#1222=IFCPIPESEGMENT('2NAW7NUvT7Bwoxmwqj26If',#6,'TUBO_PV_067_TO_PV_068','Pipe','Pipe',#1209,#1221,$,.USERDEFINED.);
#1223=IFCDIRECTION((0.,0.,1.));
#1224=IFCDIRECTION((1.,0.,0.));
#1225=IFCCARTESIANPOINT((0.,0.,0.));
#1226=IFCAXIS2PLACEMENT3D(#1225,#1223,#1224);
#1227=IFCLOCALPLACEMENT($,#1226);
#1228=IFCCARTESIANPOINT((0.,0.));
#1229=IFCAXIS2PLACEMENT2D(#1228,$);
#1230=IFCCIRCLE(#1229,0.1);
#1231=IFCDIRECTION((1.,0.,0.));
#1232=IFCEXTRUDEDAREASOLID(#1230,$,#1231,7.85806811929479);
#1233=IFCCARTESIANPOINT((0.,0.,0.));
#1234=IFCDIRECTION((0.,0.,1.));
#1235=IFCDIRECTION((1.,0.,0.));
#1236=IFCAXIS2PLACEMENT3D(#1233,#1234,#1235);
#1237=IFCGEOMETRICREPRESENTATIONCONTEXT('Model','Model',3,1.E-05,#1236,$);
#1238=IFCSHAPEREPRESENTATION(#1237,'Body','SweptSolid',(#1232));
#1239=IFCPRODUCTDEFINITIONSHAPE($,$,(#1238));
#1240=IFCPIPESEGMENT('3NNkhAro151OXMPxlwWZ0a',#6,'TUBO_PV_068_TO_PV_069','Pipe','Pipe',#1227,#1239,$,.USERDEFINED.);
#1241=IFCDIRECTION((0.,0.,1.));
#1242=IFCDIRECTION((1.,0.,0.));
#1243=IFCCARTESIANPOINT((0.,0.,0.));
#1244=IFCAXIS2PLACEMENT3D(#1243,#1241,#1242);
#1245=IFCLOCALPLACEMENT($,#1244);
#1246=IFCCARTESIANPOINT((0.,0.));
#1247=IFCAXIS2PLACEMENT2D(#1246,$);
#1248=IFCCIRCLE(#1247,0.1);
#1249=IFCDIRECTION((1.,0.,0.));
#1250=IFCEXTRUDEDAREASOLID(#1248,$,#1249,7.07817007185588);
#1251=IFCCARTESIANPOINT((0.,0.,0.));
#1252=IFCDIRECTION((0.,0.,1.));
#1253=IFCDIRECTION((1.,0.,0.));
#1254=IFCAXIS2PLACEMENT3D(#1251,#1252,#1253);
#1255=IFCGEOMETRICREPRESENTATIONCONTEXT('Model','Model',3,1.E-05,#1254,$);
#1256=IFCSHAPEREPRESENTATION(#1255,'Body','SweptSolid',(#1250));
#1257=IFCPRODUCTDEFINITIONSHAPE($,$,(#1256));
#1258=IFCPIPESEGMENT('1kSxZCeG149wOkyf7cAmYY',#6,'TUBO_PV_069_TO_PV_100','Pipe','Pipe',#1245,#1257,$,.USERDEFINED.);
#1259=IFCDIRECTION((0.,0.,1.));
#1260=IFCDIRECTION((1.,0.,0.));
#1261=IFCCARTESIANPOINT((0.,0.,0.));
#1262=IFCAXIS2PLACEMENT3D(#1261,#1259,#1260);
#1263=IFCLOCALPLACEMENT($,#1262);
#1264=IFCCARTESIANPOINT((0.,0.));
#1265=IFCAXIS2PLACEMENT2D(#1264,$);
#1266=IFCCIRCLE(#1265,0.1);
#1267=IFCDIRECTION((1.,0.,0.));
#1268=IFCEXTRUDEDAREASOLID(#1266,$,#1267,15.8379646262502);
#1269=IFCCARTESIANPOINT((0.,0.,0.));
#1270=IFCDIRECTION((0.,0.,1.));
#1271=IFCDIRECTION((1.,0.,0.));
#1272=IFCAXIS2PLACEMENT3D(#1269,#1270,#1271);
#1273=IFCGEOMETRICREPRESENTATIONCONTEXT('Model','Model',3,1.E-05,#1272,$);
#1274=IFCSHAPEREPRESENTATION(#1273,'Body','SweptSolid',(#1268));
#1275=IFCPRODUCTDEFINITIONSHAPE($,$,(#1274));
#1276=IFCPIPESEGMENT('1vUPaWmdn3KBn0Wja5I17W',#6,'TUBO_PV_100_TO_PV_071','Pipe','Pipe',#1263,#1275,$,.USERDEFINED.);
#1277=IFCDIRECTION((0.,0.,1.));
#1278=IFCDIRECTION((1.,0.,0.));
#1279=IFCCARTESIANPOINT((0.,0.,0.));
#1280=IFCAXIS2PLACEMENT3D(#1279,#1277,#1278);
#1281=IFCLOCALPLACEMENT($,#1280);
#1282=IFCCARTESIANPOINT((0.,0.));
#1283=IFCAXIS2PLACEMENT2D(#1282,$);
#1284=IFCCIRCLE(#1283,0.1);
#1285=IFCDIRECTION((1.,0.,0.));
#1286=IFCEXTRUDEDAREASOLID(#1284,$,#1285,24.5687796824923);
#1287=IFCCARTESIANPOINT((0.,0.,0.));
#1288=IFCDIRECTION((0.,0.,1.));
#1289=IFCDIRECTION((1.,0.,0.));
#1290=IFCAXIS2PLACEMENT3D(#1287,#1288,#1289);
#1291=IFCGEOMETRICREPRESENTATIONCONTEXT('Model','Model',3,1.E-05,#1290,$);
#1292=IFCSHAPEREPRESENTATION(#1291,'Body','SweptSolid',(#1286));
#1293=IFCPRODUCTDEFINITIONSHAPE($,$,(#1292));
#1294=IFCPIPESEGMENT('1_pGGxHBD7oxwEKY6gVZHZ',#6,'TUBO_PV_071_TO_PV_072','Pipe','Pipe',#1281,#1293,$,.USERDEFINED.);
#1295=IFCDIRECTION((0.,0.,1.));
#1296=IFCDIRECTION((1.,0.,0.));
#1297=IFCCARTESIANPOINT((0.,0.,0.));
#1298=IFCAXIS2PLACEMENT3D(#1297,#1295,#1296);
#1299=IFCLOCALPLACEMENT($,#1298);
#1300=IFCCARTESIANPOINT((0.,0.));
#1301=IFCAXIS2PLACEMENT2D(#1300,$);
#1302=IFCCIRCLE(#1301,0.1);
#1303=IFCDIRECTION((1.,0.,0.));
#1304=IFCEXTRUDEDAREASOLID(#1302,$,#1303,15.0361785135511);
#1305=IFCCARTESIANPOINT((0.,0.,0.));
#1306=IFCDIRECTION((0.,0.,1.));
#1307=IFCDIRECTION((1.,0.,0.));
#1308=IFCAXIS2PLACEMENT3D(#1305,#1306,#1307);
#1309=IFCGEOMETRICREPRESENTATIONCONTEXT('Model','Model',3,1.E-05,#1308,$);
#1310=IFCSHAPEREPRESENTATION(#1309,'Body','SweptSolid',(#1304));
#1311=IFCPRODUCTDEFINITIONSHAPE($,$,(#1310));
#1312=IFCPIPESEGMENT('2t1d4HwOH7TRSGKojF1227',#6,'TUBO_PV_072_TO_PV_073','Pipe','Pipe',#1299,#1311,$,.USERDEFINED.);
#1313=IFCDIRECTION((0.,0.,1.));
#1314=IFCDIRECTION((1.,0.,0.));
#1315=IFCCARTESIANPOINT((0.,0.,0.));
#1316=IFCAXIS2PLACEMENT3D(#1315,#1313,#1314);
#1317=IFCLOCALPLACEMENT($,#1316);
#1318=IFCCARTESIANPOINT((0.,0.));
#1319=IFCAXIS2PLACEMENT2D(#1318,$);
#1320=IFCCIRCLE(#1319,0.1);
#1321=IFCDIRECTION((1.,0.,0.));
#1322=IFCEXTRUDEDAREASOLID(#1320,$,#1321,15.7383184849957);
#1323=IFCCARTESIANPOINT((0.,0.,0.));
#1324=IFCDIRECTION((0.,0.,1.));
#1325=IFCDIRECTION((1.,0.,0.));
#1326=IFCAXIS2PLACEMENT3D(#1323,#1324,#1325);
#1327=IFCGEOMETRICREPRESENTATIONCONTEXT('Model','Model',3,1.E-05,#1326,$);
#1328=IFCSHAPEREPRESENTATION(#1327,'Body','SweptSolid',(#1322));
#1329=IFCPRODUCTDEFINITIONSHAPE($,$,(#1328));
#1330=IFCPIPESEGMENT('1XBnW7qeXDGBv_RbpsJSi_',#6,'TUBO_PV_073_TO_PV_074','Pipe','Pipe',#1317,#1329,$,.USERDEFINED.);
#1331=IFCDIRECTION((0.,0.,1.));
#1332=IFCDIRECTION((1.,0.,0.));
#1333=IFCCARTESIANPOINT((0.,0.,0.));
#1334=IFCAXIS2PLACEMENT3D(#1333,#1331,#1332);
#1335=IFCLOCALPLACEMENT($,#1334);
#1336=IFCCARTESIANPOINT((0.,0.));
#1337=IFCAXIS2PLACEMENT2D(#1336,$);
#1338=IFCCIRCLE(#1337,0.1);
#1339=IFCDIRECTION((1.,0.,0.));
#1340=IFCEXTRUDEDAREASOLID(#1338,$,#1339,25.8907637124055);
#1341=IFCCARTESIANPOINT((0.,0.,0.));
#1342=IFCDIRECTION((0.,0.,1.));
#1343=IFCDIRECTION((1.,0.,0.));
#1344=IFCAXIS2PLACEMENT3D(#1341,#1342,#1343);
#1345=IFCGEOMETRICREPRESENTATIONCONTEXT('Model','Model',3,1.E-05,#1344,$);
#1346=IFCSHAPEREPRESENTATION(#1345,'Body','SweptSolid',(#1340));
#1347=IFCPRODUCTDEFINITIONSHAPE($,$,(#1346));
#1348=IFCPIPESEGMENT('3L83IO_y98ZxTdZ_vf$3pb',#6,'TUBO_PV_074_TO_PV_075','Pipe','Pipe',#1335,#1347,$,.USERDEFINED.);
#1349=IFCDIRECTION((0.,0.,1.));
#1350=IFCDIRECTION((1.,0.,0.));
#1351=IFCCARTESIANPOINT((0.,0.,0.));
#1352=IFCAXIS2PLACEMENT3D(#1351,#1349,#1350);
#1353=IFCLOCALPLACEMENT($,#1352);
#1354=IFCCARTESIANPOINT((0.,0.));
#1355=IFCAXIS2PLACEMENT2D(#1354,$);
#1356=IFCCIRCLE(#1355,0.1);
#1357=IFCDIRECTION((1.,0.,0.));
#1358=IFCEXTRUDEDAREASOLID(#1356,$,#1357,8.68283622325194);
#1359=IFCCARTESIANPOINT((0.,0.,0.));
#1360=IFCDIRECTION((0.,0.,1.));
#1361=IFCDIRECTION((1.,0.,0.));
#1362=IFCAXIS2PLACEMENT3D(#1359,#1360,#1361);
#1363=IFCGEOMETRICREPRESENTATIONCONTEXT('Model','Model',3,1.E-05,#1362,$);
#1364=IFCSHAPEREPRESENTATION(#1363,'Body','SweptSolid',(#1358));
#1365=IFCPRODUCTDEFINITIONSHAPE($,$,(#1364));
#1366=IFCPIPESEGMENT('1wdrKoGZr9chyCDp201iHj',#6,'TUBO_PV_075_TO_PV_076','Pipe','Pipe',#1353,#1365,$,.USERDEFINED.);
#1367=IFCDIRECTION((0.,0.,1.));
#1368=IFCDIRECTION((1.,0.,0.));
#1369=IFCCARTESIANPOINT((0.,0.,0.));
#1370=IFCAXIS2PLACEMENT3D(#1369,#1367,#1368);
#1371=IFCLOCALPLACEMENT($,#1370);
#1372=IFCCARTESIANPOINT((0.,0.));
#1373=IFCAXIS2PLACEMENT2D(#1372,$);
#1374=IFCCIRCLE(#1373,0.1);
#1375=IFCDIRECTION((1.,0.,0.));
#1376=IFCEXTRUDEDAREASOLID(#1374,$,#1375,7.09321772303916);
#1377=IFCCARTESIANPOINT((0.,0.,0.));
#1378=IFCDIRECTION((0.,0.,1.));
#1379=IFCDIRECTION((1.,0.,0.));
#1380=IFCAXIS2PLACEMENT3D(#1377,#1378,#1379);
#1381=IFCGEOMETRICREPRESENTATIONCONTEXT('Model','Model',3,1.E-05,#1380,$);
#1382=IFCSHAPEREPRESENTATION(#1381,'Body','SweptSolid',(#1376));
#1383=IFCPRODUCTDEFINITIONSHAPE($,$,(#1382));
#1384=IFCPIPESEGMENT('1W2nG0H$n5bBQEAqsBaS3N',#6,'TUBO_PV_076_TO_PV_077','Pipe','Pipe',#1371,#1383,$,.USERDEFINED.);
#1385=IFCDIRECTION((0.,0.,1.));
#1386=IFCDIRECTION((1.,0.,0.));
#1387=IFCCARTESIANPOINT((0.,0.,0.));
#1388=IFCAXIS2PLACEMENT3D(#1387,#1385,#1386);
#1389=IFCLOCALPLACEMENT($,#1388);
#1390=IFCCARTESIANPOINT((0.,0.));
#1391=IFCAXIS2PLACEMENT2D(#1390,$);
#1392=IFCCIRCLE(#1391,0.1);
#1393=IFCDIRECTION((1.,0.,0.));
#1394=IFCEXTRUDEDAREASOLID(#1392,$,#1393,15.0575821247575);
#1395=IFCCARTESIANPOINT((0.,0.,0.));
#1396=IFCDIRECTION((0.,0.,1.));
#1397=IFCDIRECTION((1.,0.,0.));
#1398=IFCAXIS2PLACEMENT3D(#1395,#1396,#1397);
#1399=IFCGEOMETRICREPRESENTATIONCONTEXT('Model','Model',3,1.E-05,#1398,$);
#1400=IFCSHAPEREPRESENTATION(#1399,'Body','SweptSolid',(#1394));
#1401=IFCPRODUCTDEFINITIONSHAPE($,$,(#1400));
#1402=IFCPIPESEGMENT('0kmziTBxb16vCFrSJBRXTh',#6,'TUBO_PV_077_TO_PV_078','Pipe','Pipe',#1389,#1401,$,.USERDEFINED.);
#1403=IFCDIRECTION((0.,0.,1.));
#1404=IFCDIRECTION((1.,0.,0.));
#1405=IFCCARTESIANPOINT((0.,0.,0.));
#1406=IFCAXIS2PLACEMENT3D(#1405,#1403,#1404);
#1407=IFCLOCALPLACEMENT($,#1406);
#1408=IFCCARTESIANPOINT((0.,0.));
#1409=IFCAXIS2PLACEMENT2D(#1408,$);
#1410=IFCCIRCLE(#1409,0.15);
#1411=IFCDIRECTION((1.,0.,0.));
#1412=IFCEXTRUDEDAREASOLID(#1410,$,#1411,17.7512494802807);
#1413=IFCCARTESIANPOINT((0.,0.,0.));
#1414=IFCDIRECTION((0.,0.,1.));
#1415=IFCDIRECTION((1.,0.,0.));
#1416=IFCAXIS2PLACEMENT3D(#1413,#1414,#1415);
#1417=IFCGEOMETRICREPRESENTATIONCONTEXT('Model','Model',3,1.E-05,#1416,$);
#1418=IFCSHAPEREPRESENTATION(#1417,'Body','SweptSolid',(#1412));
#1419=IFCPRODUCTDEFINITIONSHAPE($,$,(#1418));
#1420=IFCPIPESEGMENT('0QrDhneI59A895pLWaeobH',#6,'TUBO_PV_X043_TO_PV_078','Pipe','Pipe',#1407,#1419,$,.USERDEFINED.);
#1421=IFCDIRECTION((0.,0.,1.));
#1422=IFCDIRECTION((1.,0.,0.));
#1423=IFCCARTESIANPOINT((0.,0.,0.));
#1424=IFCAXIS2PLACEMENT3D(#1423,#1421,#1422);
#1425=IFCLOCALPLACEMENT($,#1424);
#1426=IFCCARTESIANPOINT((0.,0.));
#1427=IFCAXIS2PLACEMENT2D(#1426,$);
#1428=IFCCIRCLE(#1427,0.1);
#1429=IFCDIRECTION((1.,0.,0.));
#1430=IFCEXTRUDEDAREASOLID(#1428,$,#1429,9.53032981721544);
#1431=IFCCARTESIANPOINT((0.,0.,0.));
#1432=IFCDIRECTION((0.,0.,1.));
#1433=IFCDIRECTION((1.,0.,0.));
#1434=IFCAXIS2PLACEMENT3D(#1431,#1432,#1433);
#1435=IFCGEOMETRICREPRESENTATIONCONTEXT('Model','Model',3,1.E-05,#1434,$);
#1436=IFCSHAPEREPRESENTATION(#1435,'Body','SweptSolid',(#1430));
#1437=IFCPRODUCTDEFINITIONSHAPE($,$,(#1436));
#1438=IFCPIPESEGMENT('3rK79Ymmv0AAXRz3G3MAiB',#6,'TUBO_PV_049_TO_PV_067','Pipe','Pipe',#1425,#1437,$,.USERDEFINED.);
#1439=IFCDIRECTION((0.,0.,1.));
#1440=IFCDIRECTION((1.,0.,0.));
#1441=IFCCARTESIANPOINT((0.,0.,0.));
#1442=IFCAXIS2PLACEMENT3D(#1441,#1439,#1440);
#1443=IFCLOCALPLACEMENT($,#1442);
#1444=IFCCARTESIANPOINT((0.,0.));
#1445=IFCAXIS2PLACEMENT2D(#1444,$);
#1446=IFCCIRCLE(#1445,0.1);
#1447=IFCDIRECTION((1.,0.,0.));
#1448=IFCEXTRUDEDAREASOLID(#1446,$,#1447,13.0811231223634);
#1449=IFCCARTESIANPOINT((0.,0.,0.));
#1450=IFCDIRECTION((0.,0.,1.));
#1451=IFCDIRECTION((1.,0.,0.));
#1452=IFCAXIS2PLACEMENT3D(#1449,#1450,#1451);
#1453=IFCGEOMETRICREPRESENTATIONCONTEXT('Model','Model',3,1.E-05,#1452,$);
#1454=IFCSHAPEREPRESENTATION(#1453,'Body','SweptSolid',(#1448));
#1455=IFCPRODUCTDEFINITIONSHAPE($,$,(#1454));
#1456=IFCPIPESEGMENT('0bgmL_ptjDn8VV4uZLaoYR',#6,'TUBO_PV_041_TO_PV_080','Pipe','Pipe',#1443,#1455,$,.USERDEFINED.);
#1457=IFCDIRECTION((0.,0.,1.));
#1458=IFCDIRECTION((1.,0.,0.));
#1459=IFCCARTESIANPOINT((0.,0.,0.));
#1460=IFCAXIS2PLACEMENT3D(#1459,#1457,#1458);
#1461=IFCLOCALPLACEMENT($,#1460);
#1462=IFCCARTESIANPOINT((0.,0.));
#1463=IFCAXIS2PLACEMENT2D(#1462,$);
#1464=IFCCIRCLE(#1463,0.1);
#1465=IFCDIRECTION((1.,0.,0.));
#1466=IFCEXTRUDEDAREASOLID(#1464,$,#1465,7.95516165716877);
#1467=IFCCARTESIANPOINT((0.,0.,0.));
#1468=IFCDIRECTION((0.,0.,1.));
#1469=IFCDIRECTION((1.,0.,0.));
#1470=IFCAXIS2PLACEMENT3D(#1467,#1468,#1469);
#1471=IFCGEOMETRICREPRESENTATIONCONTEXT('Model','Model',3,1.E-05,#1470,$);
#1472=IFCSHAPEREPRESENTATION(#1471,'Body','SweptSolid',(#1466));
#1473=IFCPRODUCTDEFINITIONSHAPE($,$,(#1472));
#1474=IFCPIPESEGMENT('07sL8JxD12eO2coLBCwRte',#6,'TUBO_PV_080_TO_PV_081','Pipe','Pipe',#1461,#1473,$,.USERDEFINED.);
#1475=IFCDIRECTION((0.,0.,1.));
#1476=IFCDIRECTION((1.,0.,0.));
#1477=IFCCARTESIANPOINT((0.,0.,0.));
#1478=IFCAXIS2PLACEMENT3D(#1477,#1475,#1476);
#1479=IFCLOCALPLACEMENT($,#1478);
#1480=IFCCARTESIANPOINT((0.,0.));
#1481=IFCAXIS2PLACEMENT2D(#1480,$);
#1482=IFCCIRCLE(#1481,0.15);
#1483=IFCDIRECTION((1.,0.,0.));
#1484=IFCEXTRUDEDAREASOLID(#1482,$,#1483,16.0047836676008);
#1485=IFCCARTESIANPOINT((0.,0.,0.));
#1486=IFCDIRECTION((0.,0.,1.));
#1487=IFCDIRECTION((1.,0.,0.));
#1488=IFCAXIS2PLACEMENT3D(#1485,#1486,#1487);
#1489=IFCGEOMETRICREPRESENTATIONCONTEXT('Model','Model',3,1.E-05,#1488,$);
#1490=IFCSHAPEREPRESENTATION(#1489,'Body','SweptSolid',(#1484));
#1491=IFCPRODUCTDEFINITIONSHAPE($,$,(#1490));
#1492=IFCPIPESEGMENT('28bA4HGcb3Dvsd03iXVVva',#6,'TUBO_PV_081_TO_PV_082','Pipe','Pipe',#1479,#1491,$,.USERDEFINED.);
#1493=IFCDIRECTION((0.,0.,1.));
#1494=IFCDIRECTION((1.,0.,0.));
#1495=IFCCARTESIANPOINT((0.,0.,0.));
#1496=IFCAXIS2PLACEMENT3D(#1495,#1493,#1494);
#1497=IFCLOCALPLACEMENT($,#1496);
#1498=IFCCARTESIANPOINT((0.,0.));
#1499=IFCAXIS2PLACEMENT2D(#1498,$);
#1500=IFCCIRCLE(#1499,0.15);
#1501=IFCDIRECTION((1.,0.,0.));
#1502=IFCEXTRUDEDAREASOLID(#1500,$,#1501,16.1734569518705);
#1503=IFCCARTESIANPOINT((0.,0.,0.));
#1504=IFCDIRECTION((0.,0.,1.));
#1505=IFCDIRECTION((1.,0.,0.));
#1506=IFCAXIS2PLACEMENT3D(#1503,#1504,#1505);
#1507=IFCGEOMETRICREPRESENTATIONCONTEXT('Model','Model',3,1.E-05,#1506,$);
#1508=IFCSHAPEREPRESENTATION(#1507,'Body','SweptSolid',(#1502));
#1509=IFCPRODUCTDEFINITIONSHAPE($,$,(#1508));
#1510=IFCPIPESEGMENT('2IQ5AsgfX1KwxR39CfsonO',#6,'TUBO_PV_082_TO_PV_083','Pipe','Pipe',#1497,#1509,$,.USERDEFINED.);
#1511=IFCDIRECTION((0.,0.,1.));
#1512=IFCDIRECTION((1.,0.,0.));
#1513=IFCCARTESIANPOINT((0.,0.,0.));
#1514=IFCAXIS2PLACEMENT3D(#1513,#1511,#1512);
#1515=IFCLOCALPLACEMENT($,#1514);
#1516=IFCCARTESIANPOINT((0.,0.));
#1517=IFCAXIS2PLACEMENT2D(#1516,$);
#1518=IFCCIRCLE(#1517,0.1);
#1519=IFCDIRECTION((1.,0.,0.));
#1520=IFCEXTRUDEDAREASOLID(#1518,$,#1519,15.5900494660696);
#1521=IFCCARTESIANPOINT((0.,0.,0.));
#1522=IFCDIRECTION((0.,0.,1.));
#1523=IFCDIRECTION((1.,0.,0.));
#1524=IFCAXIS2PLACEMENT3D(#1521,#1522,#1523);
#1525=IFCGEOMETRICREPRESENTATIONCONTEXT('Model','Model',3,1.E-05,#1524,$);
#1526=IFCSHAPEREPRESENTATION(#1525,'Body','SweptSolid',(#1520));
#1527=IFCPRODUCTDEFINITIONSHAPE($,$,(#1526));
#1528=IFCPIPESEGMENT('1WugH7gsr6fv6W4PpYnHfT',#6,'TUBO_PV_074_TO_PV_085','Pipe','Pipe',#1515,#1527,$,.USERDEFINED.);
#1529=IFCDIRECTION((0.,0.,1.));
#1530=IFCDIRECTION((1.,0.,0.));
#1531=IFCCARTESIANPOINT((0.,0.,0.));
#1532=IFCAXIS2PLACEMENT3D(#1531,#1529,#1530);
#1533=IFCLOCALPLACEMENT($,#1532);
#1534=IFCCARTESIANPOINT((0.,0.));
#1535=IFCAXIS2PLACEMENT2D(#1534,$);
#1536=IFCCIRCLE(#1535,0.1);
#1537=IFCDIRECTION((1.,0.,0.));
#1538=IFCEXTRUDEDAREASOLID(#1536,$,#1537,6.1070134274186);
#1539=IFCCARTESIANPOINT((0.,0.,0.));
#1540=IFCDIRECTION((0.,0.,1.));
#1541=IFCDIRECTION((1.,0.,0.));
#1542=IFCAXIS2PLACEMENT3D(#1539,#1540,#1541);
#1543=IFCGEOMETRICREPRESENTATIONCONTEXT('Model','Model',3,1.E-05,#1542,$);
#1544=IFCSHAPEREPRESENTATION(#1543,'Body','SweptSolid',(#1538));
#1545=IFCPRODUCTDEFINITIONSHAPE($,$,(#1544));
#1546=IFCPIPESEGMENT('32LWTxA2fB$uszOdRsxNH1',#6,'TUBO_PV_085_TO_PV_086','Pipe','Pipe',#1533,#1545,$,.USERDEFINED.);
#1547=IFCDIRECTION((0.,0.,1.));
#1548=IFCDIRECTION((1.,0.,0.));
#1549=IFCCARTESIANPOINT((0.,0.,0.));
#1550=IFCAXIS2PLACEMENT3D(#1549,#1547,#1548);
#1551=IFCLOCALPLACEMENT($,#1550);
#1552=IFCCARTESIANPOINT((0.,0.));
#1553=IFCAXIS2PLACEMENT2D(#1552,$);
#1554=IFCCIRCLE(#1553,0.1);
#1555=IFCDIRECTION((1.,0.,0.));
#1556=IFCEXTRUDEDAREASOLID(#1554,$,#1555,28.4460377799045);
#1557=IFCCARTESIANPOINT((0.,0.,0.));
#1558=IFCDIRECTION((0.,0.,1.));
#1559=IFCDIRECTION((1.,0.,0.));
#1560=IFCAXIS2PLACEMENT3D(#1557,#1558,#1559);
#1561=IFCGEOMETRICREPRESENTATIONCONTEXT('Model','Model',3,1.E-05,#1560,$);
#1562=IFCSHAPEREPRESENTATION(#1561,'Body','SweptSolid',(#1556));
#1563=IFCPRODUCTDEFINITIONSHAPE($,$,(#1562));
#1564=IFCPIPESEGMENT('1kvZNB0VT8rRfLpRwK6SBt',#6,'TUBO_PV_086_TO_PV_088','Pipe','Pipe',#1551,#1563,$,.USERDEFINED.);
#1565=IFCDIRECTION((0.,0.,1.));
#1566=IFCDIRECTION((1.,0.,0.));
#1567=IFCCARTESIANPOINT((0.,0.,0.));
#1568=IFCAXIS2PLACEMENT3D(#1567,#1565,#1566);
#1569=IFCLOCALPLACEMENT($,#1568);
#1570=IFCCARTESIANPOINT((0.,0.));
#1571=IFCAXIS2PLACEMENT2D(#1570,$);
#1572=IFCCIRCLE(#1571,0.1);
#1573=IFCDIRECTION((1.,0.,0.));
#1574=IFCEXTRUDEDAREASOLID(#1572,$,#1573,8.08704790057556);
#1575=IFCCARTESIANPOINT((0.,0.,0.));
#1576=IFCDIRECTION((0.,0.,1.));
#1577=IFCDIRECTION((1.,0.,0.));
#1578=IFCAXIS2PLACEMENT3D(#1575,#1576,#1577);
#1579=IFCGEOMETRICREPRESENTATIONCONTEXT('Model','Model',3,1.E-05,#1578,$);
#1580=IFCSHAPEREPRESENTATION(#1579,'Body','SweptSolid',(#1574));
#1581=IFCPRODUCTDEFINITIONSHAPE($,$,(#1580));
#1582=IFCPIPESEGMENT('0ocke5$SL6XAwndls7rKzM',#6,'TUBO_PV_088_TO_PV_089','Pipe','Pipe',#1569,#1581,$,.USERDEFINED.);
#1583=IFCDIRECTION((0.,0.,1.));
#1584=IFCDIRECTION((1.,0.,0.));
#1585=IFCCARTESIANPOINT((0.,0.,0.));
#1586=IFCAXIS2PLACEMENT3D(#1585,#1583,#1584);
#1587=IFCLOCALPLACEMENT($,#1586);
#1588=IFCCARTESIANPOINT((0.,0.));
#1589=IFCAXIS2PLACEMENT2D(#1588,$);
#1590=IFCCIRCLE(#1589,0.1);
#1591=IFCDIRECTION((1.,0.,0.));
#1592=IFCEXTRUDEDAREASOLID(#1590,$,#1591,7.17015582930597);
#1593=IFCCARTESIANPOINT((0.,0.,0.));
#1594=IFCDIRECTION((0.,0.,1.));
#1595=IFCDIRECTION((1.,0.,0.));
#1596=IFCAXIS2PLACEMENT3D(#1593,#1594,#1595);
#1597=IFCGEOMETRICREPRESENTATIONCONTEXT('Model','Model',3,1.E-05,#1596,$);
#1598=IFCSHAPEREPRESENTATION(#1597,'Body','SweptSolid',(#1592));
#1599=IFCPRODUCTDEFINITIONSHAPE($,$,(#1598));
#1600=IFCPIPESEGMENT('2joywQDMrEJQyC3Z6AvHAM',#6,'TUBO_PV_089_TO_PV_090','Pipe','Pipe',#1587,#1599,$,.USERDEFINED.);
#1601=IFCDIRECTION((0.,0.,1.));
#1602=IFCDIRECTION((1.,0.,0.));
#1603=IFCCARTESIANPOINT((0.,0.,0.));
#1604=IFCAXIS2PLACEMENT3D(#1603,#1601,#1602);
#1605=IFCLOCALPLACEMENT($,#1604);
#1606=IFCCARTESIANPOINT((0.,0.));
#1607=IFCAXIS2PLACEMENT2D(#1606,$);
#1608=IFCCIRCLE(#1607,0.1);
#1609=IFCDIRECTION((1.,0.,0.));
#1610=IFCEXTRUDEDAREASOLID(#1608,$,#1609,10.1401747779713);
#1611=IFCCARTESIANPOINT((0.,0.,0.));
#1612=IFCDIRECTION((0.,0.,1.));
#1613=IFCDIRECTION((1.,0.,0.));
#1614=IFCAXIS2PLACEMENT3D(#1611,#1612,#1613);
#1615=IFCGEOMETRICREPRESENTATIONCONTEXT('Model','Model',3,1.E-05,#1614,$);
#1616=IFCSHAPEREPRESENTATION(#1615,'Body','SweptSolid',(#1610));
#1617=IFCPRODUCTDEFINITIONSHAPE($,$,(#1616));
#1618=IFCPIPESEGMENT('3qTRjVC951PhMVeC7KRDzm',#6,'TUBO_PV_090_TO_PV_091','Pipe','Pipe',#1605,#1617,$,.USERDEFINED.);
#1619=IFCDIRECTION((0.,0.,1.));
#1620=IFCDIRECTION((1.,0.,0.));
#1621=IFCCARTESIANPOINT((0.,0.,0.));
#1622=IFCAXIS2PLACEMENT3D(#1621,#1619,#1620);
#1623=IFCLOCALPLACEMENT($,#1622);
#1624=IFCCARTESIANPOINT((0.,0.));
#1625=IFCAXIS2PLACEMENT2D(#1624,$);
#1626=IFCCIRCLE(#1625,0.1);
#1627=IFCDIRECTION((1.,0.,0.));
#1628=IFCEXTRUDEDAREASOLID(#1626,$,#1627,25.978483246391);
#1629=IFCCARTESIANPOINT((0.,0.,0.));
#1630=IFCDIRECTION((0.,0.,1.));
#1631=IFCDIRECTION((1.,0.,0.));
#1632=IFCAXIS2PLACEMENT3D(#1629,#1630,#1631);
#1633=IFCGEOMETRICREPRESENTATIONCONTEXT('Model','Model',3,1.E-05,#1632,$);
#1634=IFCSHAPEREPRESENTATION(#1633,'Body','SweptSolid',(#1628));
#1635=IFCPRODUCTDEFINITIONSHAPE($,$,(#1634));
#1636=IFCPIPESEGMENT('18OXwDgbT4euX5CoYqBofS',#6,'TUBO_PV_082_TO_PV_092','Pipe','Pipe',#1623,#1635,$,.USERDEFINED.);
#1637=IFCDIRECTION((0.,0.,1.));
#1638=IFCDIRECTION((1.,0.,0.));
#1639=IFCCARTESIANPOINT((0.,0.,0.));
#1640=IFCAXIS2PLACEMENT3D(#1639,#1637,#1638);
#1641=IFCLOCALPLACEMENT($,#1640);
#1642=IFCCARTESIANPOINT((0.,0.));
#1643=IFCAXIS2PLACEMENT2D(#1642,$);
#1644=IFCCIRCLE(#1643,0.1);
#1645=IFCDIRECTION((1.,0.,0.));
#1646=IFCEXTRUDEDAREASOLID(#1644,$,#1645,12.4483241798774);
#1647=IFCCARTESIANPOINT((0.,0.,0.));
#1648=IFCDIRECTION((0.,0.,1.));
#1649=IFCDIRECTION((1.,0.,0.));
#1650=IFCAXIS2PLACEMENT3D(#1647,#1648,#1649);
#1651=IFCGEOMETRICREPRESENTATIONCONTEXT('Model','Model',3,1.E-05,#1650,$);
#1652=IFCSHAPEREPRESENTATION(#1651,'Body','SweptSolid',(#1646));
#1653=IFCPRODUCTDEFINITIONSHAPE($,$,(#1652));
#1654=IFCPIPESEGMENT('38nf6M8M1959NaXLDrnvA5',#6,'TUBO_PV_092_TO_PV_093','Pipe','Pipe',#1641,#1653,$,.USERDEFINED.);
#1655=IFCDIRECTION((0.,0.,1.));
#1656=IFCDIRECTION((1.,0.,0.));
#1657=IFCCARTESIANPOINT((0.,0.,0.));
#1658=IFCAXIS2PLACEMENT3D(#1657,#1655,#1656);
#1659=IFCLOCALPLACEMENT($,#1658);
#1660=IFCCARTESIANPOINT((0.,0.));
#1661=IFCAXIS2PLACEMENT2D(#1660,$);
#1662=IFCCIRCLE(#1661,0.1);
#1663=IFCDIRECTION((1.,0.,0.));
#1664=IFCEXTRUDEDAREASOLID(#1662,$,#1663,12.3785744217377);
#1665=IFCCARTESIANPOINT((0.,0.,0.));
#1666=IFCDIRECTION((0.,0.,1.));
#1667=IFCDIRECTION((1.,0.,0.));
#1668=IFCAXIS2PLACEMENT3D(#1665,#1666,#1667);
#1669=IFCGEOMETRICREPRESENTATIONCONTEXT('Model','Model',3,1.E-05,#1668,$);
#1670=IFCSHAPEREPRESENTATION(#1669,'Body','SweptSolid',(#1664));
#1671=IFCPRODUCTDEFINITIONSHAPE($,$,(#1670));
#1672=IFCPIPESEGMENT('3mEl$2csj4iOoxVKtbD_t9',#6,'TUBO_PV_093_TO_PV_073','Pipe','Pipe',#1659,#1671,$,.USERDEFINED.);
#1673=IFCDIRECTION((0.,0.,1.));
#1674=IFCDIRECTION((1.,0.,0.));
#1675=IFCCARTESIANPOINT((0.,0.,0.));
#1676=IFCAXIS2PLACEMENT3D(#1675,#1673,#1674);
#1677=IFCLOCALPLACEMENT($,#1676);
#1678=IFCCARTESIANPOINT((0.,0.));
#1679=IFCAXIS2PLACEMENT2D(#1678,$);
#1680=IFCCIRCLE(#1679,0.1);
#1681=IFCDIRECTION((1.,0.,0.));
#1682=IFCEXTRUDEDAREASOLID(#1680,$,#1681,4.5481906508409);
#1683=IFCCARTESIANPOINT((0.,0.,0.));
#1684=IFCDIRECTION((0.,0.,1.));
#1685=IFCDIRECTION((1.,0.,0.));
#1686=IFCAXIS2PLACEMENT3D(#1683,#1684,#1685);
#1687=IFCGEOMETRICREPRESENTATIONCONTEXT('Model','Model',3,1.E-05,#1686,$);
#1688=IFCSHAPEREPRESENTATION(#1687,'Body','SweptSolid',(#1682));
#1689=IFCPRODUCTDEFINITIONSHAPE($,$,(#1688));
#1690=IFCPIPESEGMENT('3P30RxbXvAEvtl1YGaJp$J',#6,'TUBO_PV_094_TO_PV_032','Pipe','Pipe',#1677,#1689,$,.USERDEFINED.);
#1691=IFCDIRECTION((0.,0.,1.));
#1692=IFCDIRECTION((1.,0.,0.));
#1693=IFCCARTESIANPOINT((0.,0.,0.));
#1694=IFCAXIS2PLACEMENT3D(#1693,#1691,#1692);
#1695=IFCLOCALPLACEMENT($,#1694);
#1696=IFCCARTESIANPOINT((0.,0.));
#1697=IFCAXIS2PLACEMENT2D(#1696,$);
#1698=IFCCIRCLE(#1697,0.1);
#1699=IFCDIRECTION((1.,0.,0.));
#1700=IFCEXTRUDEDAREASOLID(#1698,$,#1699,32.7613118290054);
#1701=IFCCARTESIANPOINT((0.,0.,0.));
#1702=IFCDIRECTION((0.,0.,1.));
#1703=IFCDIRECTION((1.,0.,0.));
#1704=IFCAXIS2PLACEMENT3D(#1701,#1702,#1703);
#1705=IFCGEOMETRICREPRESENTATIONCONTEXT('Model','Model',3,1.E-05,#1704,$);
#1706=IFCSHAPEREPRESENTATION(#1705,'Body','SweptSolid',(#1700));
#1707=IFCPRODUCTDEFINITIONSHAPE($,$,(#1706));
#1708=IFCPIPESEGMENT('263DIhwFz4meTUDhQjIcE2',#6,'TUBO_PV_094_TO_PV_083','Pipe','Pipe',#1695,#1707,$,.USERDEFINED.);
#1709=IFCDIRECTION((0.,0.,1.));
#1710=IFCDIRECTION((1.,0.,0.));
#1711=IFCCARTESIANPOINT((0.,0.,0.));
#1712=IFCAXIS2PLACEMENT3D(#1711,#1709,#1710);
#1713=IFCLOCALPLACEMENT($,#1712);
#1714=IFCCARTESIANPOINT((0.,0.));
#1715=IFCAXIS2PLACEMENT2D(#1714,$);
#1716=IFCCIRCLE(#1715,0.1);
#1717=IFCDIRECTION((1.,0.,0.));
#1718=IFCEXTRUDEDAREASOLID(#1716,$,#1717,4.65022813696753);
#1719=IFCCARTESIANPOINT((0.,0.,0.));
#1720=IFCDIRECTION((0.,0.,1.));
#1721=IFCDIRECTION((1.,0.,0.));
#1722=IFCAXIS2PLACEMENT3D(#1719,#1720,#1721);
#1723=IFCGEOMETRICREPRESENTATIONCONTEXT('Model','Model',3,1.E-05,#1722,$);
#1724=IFCSHAPEREPRESENTATION(#1723,'Body','SweptSolid',(#1718));
#1725=IFCPRODUCTDEFINITIONSHAPE($,$,(#1724));
#1726=IFCPIPESEGMENT('3AKGIJqY1AHPedZQEL_tMx',#6,'TUBO_PV_091_TO_PV_098','Pipe','Pipe',#1713,#1725,$,.USERDEFINED.);
#1727=IFCDIRECTION((0.,0.,1.));
#1728=IFCDIRECTION((1.,0.,0.));
#1729=IFCCARTESIANPOINT((0.,0.,0.));
#1730=IFCAXIS2PLACEMENT3D(#1729,#1727,#1728);
#1731=IFCLOCALPLACEMENT($,#1730);
#1732=IFCCARTESIANPOINT((0.,0.));
#1733=IFCAXIS2PLACEMENT2D(#1732,$);
#1734=IFCCIRCLE(#1733,0.1);
#1735=IFCDIRECTION((1.,0.,0.));
#1736=IFCEXTRUDEDAREASOLID(#1734,$,#1735,4.66058992178877);
#1737=IFCCARTESIANPOINT((0.,0.,0.));
#1738=IFCDIRECTION((0.,0.,1.));
#1739=IFCDIRECTION((1.,0.,0.));
#1740=IFCAXIS2PLACEMENT3D(#1737,#1738,#1739);
#1741=IFCGEOMETRICREPRESENTATIONCONTEXT('Model','Model',3,1.E-05,#1740,$);
#1742=IFCSHAPEREPRESENTATION(#1741,'Body','SweptSolid',(#1736));
#1743=IFCPRODUCTDEFINITIONSHAPE($,$,(#1742));
#1744=IFCPIPESEGMENT('0Kn1pPGS5BNeUxGde$_xlS',#6,'TUBO_PV_098_TO_PV_099','Pipe','Pipe',#1731,#1743,$,.USERDEFINED.);
#1745=IFCDIRECTION((0.,0.,1.));
#1746=IFCDIRECTION((1.,0.,0.));
#1747=IFCCARTESIANPOINT((0.,0.,0.));
#1748=IFCAXIS2PLACEMENT3D(#1747,#1745,#1746);
#1749=IFCLOCALPLACEMENT($,#1748);
#1750=IFCCARTESIANPOINT((0.,0.));
#1751=IFCAXIS2PLACEMENT2D(#1750,$);
#1752=IFCCIRCLE(#1751,0.1);
#1753=IFCDIRECTION((1.,0.,0.));
#1754=IFCEXTRUDEDAREASOLID(#1752,$,#1753,9.16175267329495);
#1755=IFCCARTESIANPOINT((0.,0.,0.));
#1756=IFCDIRECTION((0.,0.,1.));
#1757=IFCDIRECTION((1.,0.,0.));
#1758=IFCAXIS2PLACEMENT3D(#1755,#1756,#1757);
#1759=IFCGEOMETRICREPRESENTATIONCONTEXT('Model','Model',3,1.E-05,#1758,$);
#1760=IFCSHAPEREPRESENTATION(#1759,'Body','SweptSolid',(#1754));
#1761=IFCPRODUCTDEFINITIONSHAPE($,$,(#1760));
#1762=IFCPIPESEGMENT('2fMAtBLwb12wGcN8q8Rfa4',#6,'TUBO_PV_099_TO_PV_100','Pipe','Pipe',#1749,#1761,$,.USERDEFINED.);
#1763=IFCDIRECTION((0.,0.,1.));
#1764=IFCDIRECTION((1.,0.,0.));
#1765=IFCCARTESIANPOINT((0.,0.,0.));
#1766=IFCAXIS2PLACEMENT3D(#1765,#1763,#1764);
#1767=IFCLOCALPLACEMENT($,#1766);
#1768=IFCCARTESIANPOINT((0.,0.));
#1769=IFCAXIS2PLACEMENT2D(#1768,$);
#1770=IFCCIRCLE(#1769,0.15);
#1771=IFCDIRECTION((1.,0.,0.));
#1772=IFCEXTRUDEDAREASOLID(#1770,$,#1771,13.7775161265898);
#1773=IFCCARTESIANPOINT((0.,0.,0.));
#1774=IFCDIRECTION((0.,0.,1.));
#1775=IFCDIRECTION((1.,0.,0.));
#1776=IFCAXIS2PLACEMENT3D(#1773,#1774,#1775);
#1777=IFCGEOMETRICREPRESENTATIONCONTEXT('Model','Model',3,1.E-05,#1776,$);
#1778=IFCSHAPEREPRESENTATION(#1777,'Body','SweptSolid',(#1772));
#1779=IFCPRODUCTDEFINITIONSHAPE($,$,(#1778));
#1780=IFCPIPESEGMENT('2FuId$jZnCfRkW5_SAsPqB',#6,'TUBO_PV_066_TO_PV_078','Pipe','Pipe',#1767,#1779,$,.USERDEFINED.);
#1781=IFCDIRECTION((0.,0.,1.));
#1782=IFCDIRECTION((1.,0.,0.));
#1783=IFCCARTESIANPOINT((0.,0.,0.));
#1784=IFCAXIS2PLACEMENT3D(#1783,#1781,#1782);
#1785=IFCLOCALPLACEMENT($,#1784);
#1786=IFCCARTESIANPOINT((0.,0.));
#1787=IFCAXIS2PLACEMENT2D(#1786,$);
#1788=IFCCIRCLE(#1787,0.15);
#1789=IFCDIRECTION((1.,0.,0.));
#1790=IFCEXTRUDEDAREASOLID(#1788,$,#1789,77.7855724764751);
#1791=IFCCARTESIANPOINT((0.,0.,0.));
#1792=IFCDIRECTION((0.,0.,1.));
#1793=IFCDIRECTION((1.,0.,0.));
#1794=IFCAXIS2PLACEMENT3D(#1791,#1792,#1793);
#1795=IFCGEOMETRICREPRESENTATIONCONTEXT('Model','Model',3,1.E-05,#1794,$);
#1796=IFCSHAPEREPRESENTATION(#1795,'Body','SweptSolid',(#1790));
#1797=IFCPRODUCTDEFINITIONSHAPE($,$,(#1796));
#1798=IFCPIPESEGMENT('3zvcwMBvn46eCKGLeIXzcJ',#6,'TUBO_PV_061_TO_PV_066','Pipe','Pipe',#1785,#1797,$,.USERDEFINED.);
#1799=IFCDIRECTION((0.,0.,1.));
#1800=IFCDIRECTION((1.,0.,0.));
#1801=IFCCARTESIANPOINT((0.,0.,0.));
#1802=IFCAXIS2PLACEMENT3D(#1801,#1799,#1800);
#1803=IFCLOCALPLACEMENT($,#1802);
#1804=IFCCARTESIANPOINT((0.,0.));
#1805=IFCAXIS2PLACEMENT2D(#1804,$);
#1806=IFCCIRCLE(#1805,0.15);
#1807=IFCDIRECTION((1.,0.,0.));
#1808=IFCEXTRUDEDAREASOLID(#1806,$,#1807,4.7463465628485);
#1809=IFCCARTESIANPOINT((0.,0.,0.));
#1810=IFCDIRECTION((0.,0.,1.));
#1811=IFCDIRECTION((1.,0.,0.));
#1812=IFCAXIS2PLACEMENT3D(#1809,#1810,#1811);
#1813=IFCGEOMETRICREPRESENTATIONCONTEXT('Model','Model',3,1.E-05,#1812,$);
#1814=IFCSHAPEREPRESENTATION(#1813,'Body','SweptSolid',(#1808));
#1815=IFCPRODUCTDEFINITIONSHAPE($,$,(#1814));
#1816=IFCPIPESEGMENT('0Kf$6xh3111fTfp4sCM4Rw',#6,'TUBO_PV_066_TO_PV_065','Pipe','Pipe',#1803,#1815,$,.USERDEFINED.);
#1817=IFCDIRECTION((0.,0.,1.));
#1818=IFCDIRECTION((1.,0.,0.));
#1819=IFCCARTESIANPOINT((0.,0.,0.));
#1820=IFCAXIS2PLACEMENT3D(#1819,#1817,#1818);
#1821=IFCLOCALPLACEMENT($,#1820);
#1822=IFCCARTESIANPOINT((0.,0.));
#1823=IFCAXIS2PLACEMENT2D(#1822,$);
#1824=IFCCIRCLE(#1823,0.1);
#1825=IFCDIRECTION((1.,0.,0.));
#1826=IFCEXTRUDEDAREASOLID(#1824,$,#1825,9.16175267329495);
#1827=IFCCARTESIANPOINT((0.,0.,0.));
#1828=IFCDIRECTION((0.,0.,1.));
#1829=IFCDIRECTION((1.,0.,0.));
#1830=IFCAXIS2PLACEMENT3D(#1827,#1828,#1829);
#1831=IFCGEOMETRICREPRESENTATIONCONTEXT('Model','Model',3,1.E-05,#1830,$);
#1832=IFCSHAPEREPRESENTATION(#1831,'Body','SweptSolid',(#1826));
#1833=IFCPRODUCTDEFINITIONSHAPE($,$,(#1832));
#1834=IFCPIPESEGMENT('1hc_hieKzCgAb2GyMcBiP5',#6,'TUBO_PV_100_TO_PV_099','Pipe','Pipe',#1821,#1833,$,.USERDEFINED.);
#1835=IFCDIRECTION((0.,0.,1.));
#1836=IFCDIRECTION((1.,0.,0.));
#1837=IFCCARTESIANPOINT((0.,0.,0.));
#1838=IFCAXIS2PLACEMENT3D(#1837,#1835,#1836);
#1839=IFCLOCALPLACEMENT($,#1838);
#1840=IFCCARTESIANPOINT((0.,0.));
#1841=IFCAXIS2PLACEMENT2D(#1840,$);
#1842=IFCCIRCLE(#1841,0.1);
#1843=IFCDIRECTION((1.,0.,0.));
#1844=IFCEXTRUDEDAREASOLID(#1842,$,#1843,4.65022813696753);
#1845=IFCCARTESIANPOINT((0.,0.,0.));
#1846=IFCDIRECTION((0.,0.,1.));
#1847=IFCDIRECTION((1.,0.,0.));
#1848=IFCAXIS2PLACEMENT3D(#1845,#1846,#1847);
#1849=IFCGEOMETRICREPRESENTATIONCONTEXT('Model','Model',3,1.E-05,#1848,$);
#1850=IFCSHAPEREPRESENTATION(#1849,'Body','SweptSolid',(#1844));
#1851=IFCPRODUCTDEFINITIONSHAPE($,$,(#1850));
#1852=IFCPIPESEGMENT('3dq9LTNTL3FxoUv8cu4rog',#6,'TUBO_PV_098_TO_PV_091','Pipe','Pipe',#1839,#1851,$,.USERDEFINED.);
#1853=IFCDIRECTION((0.,0.,1.));
#1854=IFCDIRECTION((1.,0.,0.));
#1855=IFCCARTESIANPOINT((0.,0.,0.));
#1856=IFCAXIS2PLACEMENT3D(#1855,#1853,#1854);
#1857=IFCLOCALPLACEMENT($,#1856);
#1858=IFCCARTESIANPOINT((0.,0.));
#1859=IFCAXIS2PLACEMENT2D(#1858,$);
#1860=IFCCIRCLE(#1859,0.1);
#1861=IFCDIRECTION((1.,0.,0.));
#1862=IFCEXTRUDEDAREASOLID(#1860,$,#1861,7.17015582930597);
#1863=IFCCARTESIANPOINT((0.,0.,0.));
#1864=IFCDIRECTION((0.,0.,1.));
#1865=IFCDIRECTION((1.,0.,0.));
#1866=IFCAXIS2PLACEMENT3D(#1863,#1864,#1865);
#1867=IFCGEOMETRICREPRESENTATIONCONTEXT('Model','Model',3,1.E-05,#1866,$);
#1868=IFCSHAPEREPRESENTATION(#1867,'Body','SweptSolid',(#1862));
#1869=IFCPRODUCTDEFINITIONSHAPE($,$,(#1868));
#1870=IFCPIPESEGMENT('1LN2ZtGor0H8slKVU7GIRe',#6,'TUBO_PV_090_TO_PV_089','Pipe','Pipe',#1857,#1869,$,.USERDEFINED.);
#1871=IFCDIRECTION((0.,0.,1.));
#1872=IFCDIRECTION((1.,0.,0.));
#1873=IFCCARTESIANPOINT((0.,0.,0.));
#1874=IFCAXIS2PLACEMENT3D(#1873,#1871,#1872);
#1875=IFCLOCALPLACEMENT($,#1874);
#1876=IFCCARTESIANPOINT((0.,0.));
#1877=IFCAXIS2PLACEMENT2D(#1876,$);
#1878=IFCCIRCLE(#1877,0.1);
#1879=IFCDIRECTION((1.,0.,0.));
#1880=IFCEXTRUDEDAREASOLID(#1878,$,#1879,28.4460377799045);
#1881=IFCCARTESIANPOINT((0.,0.,0.));
#1882=IFCDIRECTION((0.,0.,1.));
#1883=IFCDIRECTION((1.,0.,0.));
#1884=IFCAXIS2PLACEMENT3D(#1881,#1882,#1883);
#1885=IFCGEOMETRICREPRESENTATIONCONTEXT('Model','Model',3,1.E-05,#1884,$);
#1886=IFCSHAPEREPRESENTATION(#1885,'Body','SweptSolid',(#1880));
#1887=IFCPRODUCTDEFINITIONSHAPE($,$,(#1886));
#1888=IFCPIPESEGMENT('3OihFVzcnBYw6QIx$Zbiw8',#6,'TUBO_PV_088_TO_PV_086','Pipe','Pipe',#1875,#1887,$,.USERDEFINED.);
#1889=IFCDIRECTION((0.,0.,1.));
#1890=IFCDIRECTION((1.,0.,0.));
#1891=IFCCARTESIANPOINT((0.,0.,0.));
#1892=IFCAXIS2PLACEMENT3D(#1891,#1889,#1890);
#1893=IFCLOCALPLACEMENT($,#1892);
#1894=IFCCARTESIANPOINT((0.,0.));
#1895=IFCAXIS2PLACEMENT2D(#1894,$);
#1896=IFCCIRCLE(#1895,0.1);
#1897=IFCDIRECTION((1.,0.,0.));
#1898=IFCEXTRUDEDAREASOLID(#1896,$,#1897,7.09321772303916);
#1899=IFCCARTESIANPOINT((0.,0.,0.));
#1900=IFCDIRECTION((0.,0.,1.));
#1901=IFCDIRECTION((1.,0.,0.));
#1902=IFCAXIS2PLACEMENT3D(#1899,#1900,#1901);
#1903=IFCGEOMETRICREPRESENTATIONCONTEXT('Model','Model',3,1.E-05,#1902,$);
#1904=IFCSHAPEREPRESENTATION(#1903,'Body','SweptSolid',(#1898));
#1905=IFCPRODUCTDEFINITIONSHAPE($,$,(#1904));
#1906=IFCPIPESEGMENT('0AxMQ0Oq9AeOY$foC68f49',#6,'TUBO_PV_077_TO_PV_076','Pipe','Pipe',#1893,#1905,$,.USERDEFINED.);
#1907=IFCDIRECTION((0.,0.,1.));
#1908=IFCDIRECTION((1.,0.,0.));
#1909=IFCCARTESIANPOINT((0.,0.,0.));
#1910=IFCAXIS2PLACEMENT3D(#1909,#1907,#1908);
#1911=IFCLOCALPLACEMENT($,#1910);
#1912=IFCCARTESIANPOINT((0.,0.));
#1913=IFCAXIS2PLACEMENT2D(#1912,$);
#1914=IFCCIRCLE(#1913,0.15);
#1915=IFCDIRECTION((1.,0.,0.));
#1916=IFCEXTRUDEDAREASOLID(#1914,$,#1915,23.1973329455458);
#1917=IFCCARTESIANPOINT((0.,0.,0.));
#1918=IFCDIRECTION((0.,0.,1.));
#1919=IFCDIRECTION((1.,0.,0.));
#1920=IFCAXIS2PLACEMENT3D(#1917,#1918,#1919);
#1921=IFCGEOMETRICREPRESENTATIONCONTEXT('Model','Model',3,1.E-05,#1920,$);
#1922=IFCSHAPEREPRESENTATION(#1921,'Body','SweptSolid',(#1916));
#1923=IFCPRODUCTDEFINITIONSHAPE($,$,(#1922));
#1924=IFCPIPESEGMENT('3ByG8M_Jj9khdyRnLzy5$q',#6,'TUBO_PV_036_TO_PV_037','Pipe','Pipe',#1911,#1923,$,.USERDEFINED.);
#1925=IFCDIRECTION((0.,0.,1.));
#1926=IFCDIRECTION((1.,0.,0.));
#1927=IFCCARTESIANPOINT((0.,0.,0.));
#1928=IFCAXIS2PLACEMENT3D(#1927,#1925,#1926);
#1929=IFCLOCALPLACEMENT($,#1928);
#1930=IFCCARTESIANPOINT((0.,0.));
#1931=IFCAXIS2PLACEMENT2D(#1930,$);
#1932=IFCCIRCLE(#1931,0.15);
#1933=IFCDIRECTION((1.,0.,0.));
#1934=IFCEXTRUDEDAREASOLID(#1932,$,#1933,20.0744407879768);
#1935=IFCCARTESIANPOINT((0.,0.,0.));
#1936=IFCDIRECTION((0.,0.,1.));
#1937=IFCDIRECTION((1.,0.,0.));
#1938=IFCAXIS2PLACEMENT3D(#1935,#1936,#1937);
#1939=IFCGEOMETRICREPRESENTATIONCONTEXT('Model','Model',3,1.E-05,#1938,$);
#1940=IFCSHAPEREPRESENTATION(#1939,'Body','SweptSolid',(#1934));
#1941=IFCPRODUCTDEFINITIONSHAPE($,$,(#1940));
#1942=IFCPIPESEGMENT('0rxuIz_zzCahuNHz_YuIUG',#6,'TUBO_PV_037_TO_PV_038','Pipe','Pipe',#1929,#1941,$,.USERDEFINED.);
#1943=IFCDIRECTION((0.,0.,1.));
#1944=IFCDIRECTION((1.,0.,0.));
#1945=IFCCARTESIANPOINT((0.,0.,0.));
#1946=IFCAXIS2PLACEMENT3D(#1945,#1943,#1944);
#1947=IFCLOCALPLACEMENT($,#1946);
#1948=IFCCARTESIANPOINT((0.,0.));
#1949=IFCAXIS2PLACEMENT2D(#1948,$);
#1950=IFCCIRCLE(#1949,0.15);
#1951=IFCDIRECTION((1.,0.,0.));
#1952=IFCEXTRUDEDAREASOLID(#1950,$,#1951,74.9644685629666);
#1953=IFCCARTESIANPOINT((0.,0.,0.));
#1954=IFCDIRECTION((0.,0.,1.));
#1955=IFCDIRECTION((1.,0.,0.));
#1956=IFCAXIS2PLACEMENT3D(#1953,#1954,#1955);
#1957=IFCGEOMETRICREPRESENTATIONCONTEXT('Model','Model',3,1.E-05,#1956,$);
#1958=IFCSHAPEREPRESENTATION(#1957,'Body','SweptSolid',(#1952));
#1959=IFCPRODUCTDEFINITIONSHAPE($,$,(#1958));
#1960=IFCPIPESEGMENT('1p5bOazOL6mvo1V61nc1JP',#6,'TUBO_PV_038_TO_PV_X043','Pipe','Pipe',#1947,#1959,$,.USERDEFINED.);
#1961=IFCDIRECTION((0.,0.,1.));
#1962=IFCDIRECTION((1.,0.,0.));
#1963=IFCCARTESIANPOINT((0.,0.,0.));
#1964=IFCAXIS2PLACEMENT3D(#1963,#1961,#1962);
#1965=IFCLOCALPLACEMENT($,#1964);
#1966=IFCCARTESIANPOINT((0.,0.));
#1967=IFCAXIS2PLACEMENT2D(#1966,$);
#1968=IFCCIRCLE(#1967,0.15);
#1969=IFCDIRECTION((1.,0.,0.));
#1970=IFCEXTRUDEDAREASOLID(#1968,$,#1969,34.8253339650336);
#1971=IFCCARTESIANPOINT((0.,0.,0.));
#1972=IFCDIRECTION((0.,0.,1.));
#1973=IFCDIRECTION((1.,0.,0.));
#1974=IFCAXIS2PLACEMENT3D(#1971,#1972,#1973);
#1975=IFCGEOMETRICREPRESENTATIONCONTEXT('Model','Model',3,1.E-05,#1974,$);
#1976=IFCSHAPEREPRESENTATION(#1975,'Body','SweptSolid',(#1970));
#1977=IFCPRODUCTDEFINITIONSHAPE($,$,(#1976));
#1978=IFCPIPESEGMENT('0LtwDJHDH7TBKZuIHxwU1A',#6,'TUBO_PV_032_TO_PV_039','Pipe','Pipe',#1965,#1977,$,.USERDEFINED.);
#1979=IFCDIRECTION((0.,0.,1.));
#1980=IFCDIRECTION((1.,0.,0.));
#1981=IFCCARTESIANPOINT((0.,0.,0.));
#1982=IFCAXIS2PLACEMENT3D(#1981,#1979,#1980);
#1983=IFCLOCALPLACEMENT($,#1982);
#1984=IFCCARTESIANPOINT((0.,0.));
#1985=IFCAXIS2PLACEMENT2D(#1984,$);
#1986=IFCCIRCLE(#1985,0.15);
#1987=IFCDIRECTION((1.,0.,0.));
#1988=IFCEXTRUDEDAREASOLID(#1986,$,#1987,19.8246717085006);
#1989=IFCCARTESIANPOINT((0.,0.,0.));
#1990=IFCDIRECTION((0.,0.,1.));
#1991=IFCDIRECTION((1.,0.,0.));
#1992=IFCAXIS2PLACEMENT3D(#1989,#1990,#1991);
#1993=IFCGEOMETRICREPRESENTATIONCONTEXT('Model','Model',3,1.E-05,#1992,$);
#1994=IFCSHAPEREPRESENTATION(#1993,'Body','SweptSolid',(#1988));
#1995=IFCPRODUCTDEFINITIONSHAPE($,$,(#1994));
#1996=IFCPIPESEGMENT('0EE99tJ7TCBw7dfv1w7$b9',#6,'TUBO_PV_039_TO_PV_036','Pipe','Pipe',#1983,#1995,$,.USERDEFINED.);
#1997=IFCDIRECTION((0.,0.,1.));
#1998=IFCDIRECTION((1.,0.,0.));
#1999=IFCCARTESIANPOINT((0.,0.,0.));
#2000=IFCAXIS2PLACEMENT3D(#1999,#1997,#1998);
#2001=IFCLOCALPLACEMENT($,#2000);
#2002=IFCCARTESIANPOINT((0.,0.));
#2003=IFCAXIS2PLACEMENT2D(#2002,$);
#2004=IFCCIRCLE(#2003,0.15);
#2005=IFCDIRECTION((1.,0.,0.));
#2006=IFCEXTRUDEDAREASOLID(#2004,$,#2005,21.5752426476063);
#2007=IFCCARTESIANPOINT((0.,0.,0.));
#2008=IFCDIRECTION((0.,0.,1.));
#2009=IFCDIRECTION((1.,0.,0.));
#2010=IFCAXIS2PLACEMENT3D(#2007,#2008,#2009);
#2011=IFCGEOMETRICREPRESENTATIONCONTEXT('Model','Model',3,1.E-05,#2010,$);
#2012=IFCSHAPEREPRESENTATION(#2011,'Body','SweptSolid',(#2006));
#2013=IFCPRODUCTDEFINITIONSHAPE($,$,(#2012));
#2014=IFCPIPESEGMENT('2HmLG4JH94L90dcXJOuMU7',#6,'TUBO_PV_036_TO_PV_X019','Pipe','Pipe',#2001,#2013,$,.USERDEFINED.);
#2015=IFCDIRECTION((0.,0.,1.));
#2016=IFCDIRECTION((1.,0.,0.));
#2017=IFCCARTESIANPOINT((0.,0.,0.));
#2018=IFCAXIS2PLACEMENT3D(#2017,#2015,#2016);
#2019=IFCLOCALPLACEMENT($,#2018);
#2020=IFCCARTESIANPOINT((0.,0.));
#2021=IFCAXIS2PLACEMENT2D(#2020,$);
#2022=IFCCIRCLE(#2021,0.15);
#2023=IFCDIRECTION((1.,0.,0.));
#2024=IFCEXTRUDEDAREASOLID(#2022,$,#2023,3.49187468586914);
#2025=IFCCARTESIANPOINT((0.,0.,0.));
#2026=IFCDIRECTION((0.,0.,1.));
#2027=IFCDIRECTION((1.,0.,0.));
#2028=IFCAXIS2PLACEMENT3D(#2025,#2026,#2027);
#2029=IFCGEOMETRICREPRESENTATIONCONTEXT('Model','Model',3,1.E-05,#2028,$);
#2030=IFCSHAPEREPRESENTATION(#2029,'Body','SweptSolid',(#2024));
#2031=IFCPRODUCTDEFINITIONSHAPE($,$,(#2030));
#2032=IFCPIPESEGMENT('3Wp_3V9wH9txFsMEl5T1ys',#6,'TUBO_PV_X019_TO_PV_039','Pipe','Pipe',#2019,#2031,$,.USERDEFINED.);
#2033=IFCDIRECTION((0.,0.,1.));
#2034=IFCDIRECTION((1.,0.,0.));
#2035=IFCCARTESIANPOINT((0.,0.,0.));
#2036=IFCAXIS2PLACEMENT3D(#2035,#2033,#2034);
#2037=IFCLOCALPLACEMENT($,#2036);
#2038=IFCCARTESIANPOINT((0.,0.));
#2039=IFCAXIS2PLACEMENT2D(#2038,$);
#2040=IFCCIRCLE(#2039,0.15);
#2041=IFCDIRECTION((1.,0.,0.));
#2042=IFCEXTRUDEDAREASOLID(#2040,$,#2041,20.0744407879768);
#2043=IFCCARTESIANPOINT((0.,0.,0.));
#2044=IFCDIRECTION((0.,0.,1.));
#2045=IFCDIRECTION((1.,0.,0.));
#2046=IFCAXIS2PLACEMENT3D(#2043,#2044,#2045);
#2047=IFCGEOMETRICREPRESENTATIONCONTEXT('Model','Model',3,1.E-05,#2046,$);
#2048=IFCSHAPEREPRESENTATION(#2047,'Body','SweptSolid',(#2042));
#2049=IFCPRODUCTDEFINITIONSHAPE($,$,(#2048));
#2050=IFCPIPESEGMENT('1245mYnEj1TeXgMzFj8aqE',#6,'TUBO_PV_038_TO_PV_037','Pipe','Pipe',#2037,#2049,$,.USERDEFINED.);
#2051=IFCDIRECTION((0.,0.,1.));
#2052=IFCDIRECTION((1.,0.,0.));
#2053=IFCCARTESIANPOINT((0.,0.,0.));
#2054=IFCAXIS2PLACEMENT3D(#2053,#2051,#2052);
#2055=IFCLOCALPLACEMENT($,#2054);
#2056=IFCCARTESIANPOINT((0.,0.));
#2057=IFCAXIS2PLACEMENT2D(#2056,$);
#2058=IFCCIRCLE(#2057,0.1);
#2059=IFCDIRECTION((1.,0.,0.));
#2060=IFCEXTRUDEDAREASOLID(#2058,$,#2059,12.3785744217377);
#2061=IFCCARTESIANPOINT((0.,0.,0.));
#2062=IFCDIRECTION((0.,0.,1.));
#2063=IFCDIRECTION((1.,0.,0.));
#2064=IFCAXIS2PLACEMENT3D(#2061,#2062,#2063);
#2065=IFCGEOMETRICREPRESENTATIONCONTEXT('Model','Model',3,1.E-05,#2064,$);
#2066=IFCSHAPEREPRESENTATION(#2065,'Body','SweptSolid',(#2060));
#2067=IFCPRODUCTDEFINITIONSHAPE($,$,(#2066));
#2068=IFCPIPESEGMENT('2S7se77FzFKADO9FXSn0oZ',#6,'TUBO_PV_073_TO_PV_093','Pipe','Pipe',#2055,#2067,$,.USERDEFINED.);
#2069=IFCDIRECTION((0.,0.,1.));
#2070=IFCDIRECTION((1.,0.,0.));
#2071=IFCCARTESIANPOINT((0.,0.,0.));
#2072=IFCAXIS2PLACEMENT3D(#2071,#2069,#2070);
#2073=IFCLOCALPLACEMENT($,#2072);
#2074=IFCCARTESIANPOINT((0.,0.));
#2075=IFCAXIS2PLACEMENT2D(#2074,$);
#2076=IFCCIRCLE(#2075,0.1);
#2077=IFCDIRECTION((1.,0.,0.));
#2078=IFCEXTRUDEDAREASOLID(#2076,$,#2077,12.4483241798774);
#2079=IFCCARTESIANPOINT((0.,0.,0.));
#2080=IFCDIRECTION((0.,0.,1.));
#2081=IFCDIRECTION((1.,0.,0.));
#2082=IFCAXIS2PLACEMENT3D(#2079,#2080,#2081);
#2083=IFCGEOMETRICREPRESENTATIONCONTEXT('Model','Model',3,1.E-05,#2082,$);
#2084=IFCSHAPEREPRESENTATION(#2083,'Body','SweptSolid',(#2078));
#2085=IFCPRODUCTDEFINITIONSHAPE($,$,(#2084));
#2086=IFCPIPESEGMENT('0XBHw5RePCYfHE9Lbu9wCy',#6,'TUBO_PV_093_TO_PV_092','Pipe','Pipe',#2073,#2085,$,.USERDEFINED.);
#2087=IFCDIRECTION((0.,0.,1.));
#2088=IFCDIRECTION((1.,0.,0.));
#2089=IFCCARTESIANPOINT((0.,0.,0.));
#2090=IFCAXIS2PLACEMENT3D(#2089,#2087,#2088);
#2091=IFCLOCALPLACEMENT($,#2090);
#2092=IFCCARTESIANPOINT((0.,0.));
#2093=IFCAXIS2PLACEMENT2D(#2092,$);
#2094=IFCCIRCLE(#2093,0.1);
#2095=IFCDIRECTION((1.,0.,0.));
#2096=IFCEXTRUDEDAREASOLID(#2094,$,#2095,25.978483246391);
#2097=IFCCARTESIANPOINT((0.,0.,0.));
#2098=IFCDIRECTION((0.,0.,1.));
#2099=IFCDIRECTION((1.,0.,0.));
#2100=IFCAXIS2PLACEMENT3D(#2097,#2098,#2099);
#2101=IFCGEOMETRICREPRESENTATIONCONTEXT('Model','Model',3,1.E-05,#2100,$);
#2102=IFCSHAPEREPRESENTATION(#2101,'Body','SweptSolid',(#2096));
#2103=IFCPRODUCTDEFINITIONSHAPE($,$,(#2102));
#2104=IFCPIPESEGMENT('10jB8aedzDPRj2fGUIaIPj',#6,'TUBO_PV_092_TO_PV_082','Pipe','Pipe',#2091,#2103,$,.USERDEFINED.);
#2105=IFCDIRECTION((0.,0.,1.));
#2106=IFCDIRECTION((1.,0.,0.));
#2107=IFCCARTESIANPOINT((0.,0.,0.));
#2108=IFCAXIS2PLACEMENT3D(#2107,#2105,#2106);
#2109=IFCLOCALPLACEMENT($,#2108);
#2110=IFCCARTESIANPOINT((0.,0.));
#2111=IFCAXIS2PLACEMENT2D(#2110,$);
#2112=IFCCIRCLE(#2111,0.15);
#2113=IFCDIRECTION((1.,0.,0.));
#2114=IFCEXTRUDEDAREASOLID(#2112,$,#2113,17.7512494802807);
#2115=IFCCARTESIANPOINT((0.,0.,0.));
#2116=IFCDIRECTION((0.,0.,1.));
#2117=IFCDIRECTION((1.,0.,0.));
#2118=IFCAXIS2PLACEMENT3D(#2115,#2116,#2117);
#2119=IFCGEOMETRICREPRESENTATIONCONTEXT('Model','Model',3,1.E-05,#2118,$);
#2120=IFCSHAPEREPRESENTATION(#2119,'Body','SweptSolid',(#2114));
#2121=IFCPRODUCTDEFINITIONSHAPE($,$,(#2120));
#2122=IFCPIPESEGMENT('2HqZeKbXX2hvIlQmZZVcRm',#6,'TUBO_PV_078_TO_PV_X043','Pipe','Pipe',#2109,#2121,$,.USERDEFINED.);
#2123=IFCDIRECTION((0.,0.,1.));
#2124=IFCDIRECTION((1.,0.,0.));
#2125=IFCCARTESIANPOINT((0.,0.,0.));
#2126=IFCAXIS2PLACEMENT3D(#2125,#2123,#2124);
#2127=IFCLOCALPLACEMENT($,#2126);
#2128=IFCCARTESIANPOINT((0.,0.));
#2129=IFCAXIS2PLACEMENT2D(#2128,$);
#2130=IFCCIRCLE(#2129,0.1);
#2131=IFCDIRECTION((1.,0.,0.));
#2132=IFCEXTRUDEDAREASOLID(#2130,$,#2131,23.6454900763039);
#2133=IFCCARTESIANPOINT((0.,0.,0.));
#2134=IFCDIRECTION((0.,0.,1.));
#2135=IFCDIRECTION((1.,0.,0.));
#2136=IFCAXIS2PLACEMENT3D(#2133,#2134,#2135);
#2137=IFCGEOMETRICREPRESENTATIONCONTEXT('Model','Model',3,1.E-05,#2136,$);
#2138=IFCSHAPEREPRESENTATION(#2137,'Body','SweptSolid',(#2132));
#2139=IFCPRODUCTDEFINITIONSHAPE($,$,(#2138));
#2140=IFCPIPESEGMENT('1hmhYYcgX4mOmmocrTAf_N',#6,'TUBO_PV_034_TO_PV_033','Pipe','Pipe',#2127,#2139,$,.USERDEFINED.);
#2141=IFCDIRECTION((0.,0.,1.));
#2142=IFCDIRECTION((1.,0.,0.));
#2143=IFCCARTESIANPOINT((0.,0.,0.));
#2144=IFCAXIS2PLACEMENT3D(#2143,#2141,#2142);
#2145=IFCLOCALPLACEMENT($,#2144);
#2146=IFCCARTESIANPOINT((0.,0.));
#2147=IFCAXIS2PLACEMENT2D(#2146,$);
#2148=IFCCIRCLE(#2147,0.15);
#2149=IFCDIRECTION((1.,0.,0.));
#2150=IFCEXTRUDEDAREASOLID(#2148,$,#2149,28.8998826246318);
#2151=IFCCARTESIANPOINT((0.,0.,0.));
#2152=IFCDIRECTION((0.,0.,1.));
#2153=IFCDIRECTION((1.,0.,0.));
#2154=IFCAXIS2PLACEMENT3D(#2151,#2152,#2153);
#2155=IFCGEOMETRICREPRESENTATIONCONTEXT('Model','Model',3,1.E-05,#2154,$);
#2156=IFCSHAPEREPRESENTATION(#2155,'Body','SweptSolid',(#2150));
#2157=IFCPRODUCTDEFINITIONSHAPE($,$,(#2156));
#2158=IFCPIPESEGMENT('0qFgivpSr7DOQmZG6RmTmE',#6,'TUBO_PV_083_TO_PV_084','Pipe','Pipe',#2145,#2157,$,.USERDEFINED.);
#2159=IFCDIRECTION((0.,0.,1.));
#2160=IFCDIRECTION((1.,0.,0.));
#2161=IFCCARTESIANPOINT((0.,0.,0.));
#2162=IFCAXIS2PLACEMENT3D(#2161,#2159,#2160);
#2163=IFCLOCALPLACEMENT($,#2162);
#2164=IFCCARTESIANPOINT((0.,0.));
#2165=IFCAXIS2PLACEMENT2D(#2164,$);
#2166=IFCCIRCLE(#2165,0.15);
#2167=IFCDIRECTION((1.,0.,0.));
#2168=IFCEXTRUDEDAREASOLID(#2166,$,#2167,5.46706190309285);
#2169=IFCCARTESIANPOINT((0.,0.,0.));
#2170=IFCDIRECTION((0.,0.,1.));
#2171=IFCDIRECTION((1.,0.,0.));
#2172=IFCAXIS2PLACEMENT3D(#2169,#2170,#2171);
#2173=IFCGEOMETRICREPRESENTATIONCONTEXT('Model','Model',3,1.E-05,#2172,$);
#2174=IFCSHAPEREPRESENTATION(#2173,'Body','SweptSolid',(#2168));
#2175=IFCPRODUCTDEFINITIONSHAPE($,$,(#2174));
#2176=IFCPIPESEGMENT('3tRE2O8Bz3lu0GHSOnzzmm',#6,'TUBO_PV_084_TO_PV_037','Pipe','Pipe',#2163,#2175,$,.USERDEFINED.);
#2177=IFCDIRECTION((0.,0.,1.));
#2178=IFCDIRECTION((1.,0.,0.));
#2179=IFCCARTESIANPOINT((0.,0.,0.));
#2180=IFCAXIS2PLACEMENT3D(#2179,#2177,#2178);
#2181=IFCLOCALPLACEMENT($,#2180);
#2182=IFCCARTESIANPOINT((0.,0.));
#2183=IFCAXIS2PLACEMENT2D(#2182,$);
#2184=IFCCIRCLE(#2183,0.1);
#2185=IFCDIRECTION((1.,0.,0.));
#2186=IFCEXTRUDEDAREASOLID(#2184,$,#2185,15.0361785135511);
#2187=IFCCARTESIANPOINT((0.,0.,0.));
#2188=IFCDIRECTION((0.,0.,1.));
#2189=IFCDIRECTION((1.,0.,0.));
#2190=IFCAXIS2PLACEMENT3D(#2187,#2188,#2189);
#2191=IFCGEOMETRICREPRESENTATIONCONTEXT('Model','Model',3,1.E-05,#2190,$);
#2192=IFCSHAPEREPRESENTATION(#2191,'Body','SweptSolid',(#2186));
#2193=IFCPRODUCTDEFINITIONSHAPE($,$,(#2192));
#2194=IFCPIPESEGMENT('1D38CQN69DLwqU05iEG9SG',#6,'TUBO_PV_073_TO_PV_072','Pipe','Pipe',#2181,#2193,$,.USERDEFINED.);
#2195=IFCDIRECTION((0.,0.,1.));
#2196=IFCDIRECTION((1.,0.,0.));
#2197=IFCCARTESIANPOINT((0.,0.,0.));
#2198=IFCAXIS2PLACEMENT3D(#2197,#2195,#2196);
#2199=IFCLOCALPLACEMENT($,#2198);
#2200=IFCCARTESIANPOINT((0.,0.));
#2201=IFCAXIS2PLACEMENT2D(#2200,$);
#2202=IFCCIRCLE(#2201,0.1);
#2203=IFCDIRECTION((1.,0.,0.));
#2204=IFCEXTRUDEDAREASOLID(#2202,$,#2203,15.7504861645457);
#2205=IFCCARTESIANPOINT((0.,0.,0.));
#2206=IFCDIRECTION((0.,0.,1.));
#2207=IFCDIRECTION((1.,0.,0.));
#2208=IFCAXIS2PLACEMENT3D(#2205,#2206,#2207);
#2209=IFCGEOMETRICREPRESENTATIONCONTEXT('Model','Model',3,1.E-05,#2208,$);
#2210=IFCSHAPEREPRESENTATION(#2209,'Body','SweptSolid',(#2204));
#2211=IFCPRODUCTDEFINITIONSHAPE($,$,(#2210));
#2212=IFCPIPESEGMENT('0_tdUtm410Wu38fv96h2m9',#6,'TUBO_PV_034_TO_PV_042','Pipe','Pipe',#2199,#2211,$,.USERDEFINED.);
ENDSEC;
END-ISO-10303-21;
